<svg width="90" height="17" viewBox="0 0 90 17" fill="none" xmlns="http://www.w3.org/2000/svg">
<path d="M0.410156 16V13.998L1.88477 13.6855V4.10547L0.410156 3.79297V1.78125H1.88477H7.32422C8.45703 1.78125 9.4401 1.97982 10.2734 2.37695C11.1068 2.77409 11.748 3.32747 12.1973 4.03711C12.653 4.74023 12.8809 5.56055 12.8809 6.49805C12.8809 7.43555 12.653 8.25586 12.1973 8.95898C11.748 9.66211 11.1068 10.209 10.2734 10.5996C9.4401 10.9902 8.45703 11.1855 7.32422 11.1855H5.3125V13.6855L6.78711 13.998V16H0.410156ZM5.3125 8.55859H7.32422C8.02083 8.55859 8.54818 8.36979 8.90625 7.99219C9.27083 7.60807 9.45312 7.11654 9.45312 6.51758C9.45312 5.89909 9.27083 5.39128 8.90625 4.99414C8.54818 4.59701 8.02083 4.39844 7.32422 4.39844H5.3125V8.55859ZM18.7988 16.2051C17.7116 16.2051 16.7806 15.9805 16.0059 15.5312C15.2376 15.0755 14.6484 14.444 14.2383 13.6367C13.8346 12.8229 13.6328 11.8822 13.6328 10.8145V10.6191C13.6328 9.56445 13.8346 8.63346 14.2383 7.82617C14.6484 7.01888 15.2376 6.38737 16.0059 5.93164C16.7741 5.4694 17.6986 5.23828 18.7793 5.23828C19.8665 5.23828 20.791 5.46615 21.5527 5.92188C22.321 6.3776 22.9069 7.00911 23.3105 7.81641C23.7207 8.6237 23.9258 9.55794 23.9258 10.6191V10.8145C23.9258 11.8757 23.7207 12.8132 23.3105 13.627C22.9069 14.4342 22.321 15.0658 21.5527 15.5215C20.791 15.9772 19.873 16.2051 18.7988 16.2051ZM18.7988 13.5977C19.2155 13.5977 19.5475 13.487 19.7949 13.2656C20.0488 13.0378 20.2311 12.7155 20.3418 12.2988C20.459 11.8822 20.5176 11.3874 20.5176 10.8145V10.6191C20.5176 10.0658 20.459 9.58398 20.3418 9.17383C20.2311 8.75716 20.0488 8.4349 19.7949 8.20703C19.541 7.97266 19.2025 7.85547 18.7793 7.85547C18.3626 7.85547 18.0273 7.97266 17.7734 8.20703C17.5195 8.4349 17.3372 8.75716 17.2266 9.17383C17.1159 9.58398 17.0605 10.0658 17.0605 10.6191V10.8145C17.0605 11.3939 17.1159 11.8919 17.2266 12.3086C17.3372 12.7253 17.5195 13.0443 17.7734 13.2656C18.0273 13.487 18.3691 13.5977 18.7988 13.5977ZM25.4199 16V13.998L26.6504 13.6855V7.75781L25.1855 7.44531V5.43359H29.8828L29.9609 6.72266L29.9805 6.98633C30.2148 6.38737 30.5046 5.94792 30.8496 5.66797C31.2012 5.38151 31.6374 5.23828 32.1582 5.23828C32.3014 5.23828 32.4707 5.2513 32.666 5.27734C32.8613 5.29688 33.0599 5.33594 33.2617 5.39453L32.9199 8.53906L31.4551 8.4707C31.1165 8.45768 30.8496 8.49674 30.6543 8.58789C30.4655 8.67253 30.2734 8.81576 30.0781 9.01758V13.6855L31.3086 13.998V16H25.4199ZM38.4961 16.2246C37.3893 16.2246 36.5462 15.9316 35.9668 15.3457C35.3939 14.7533 35.1074 13.819 35.1074 12.543V7.79688H33.7891V5.43359H35.1074V2.82617H38.5156V5.43359H40.2441V7.79688H38.5156V12.5332C38.5156 12.8783 38.5938 13.1191 38.75 13.2559C38.9062 13.3926 39.1211 13.4609 39.3945 13.4609C39.5117 13.4609 39.6289 13.4544 39.7461 13.4414C39.8633 13.4284 39.9805 13.4121 40.0977 13.3926L40.332 15.9512C40.0326 16.0358 39.7298 16.1009 39.4238 16.1465C39.1243 16.1986 38.8151 16.2246 38.4961 16.2246Z" fill="white"/>
<path d="M41.5723 16V13.998L42.8125 13.6855V7.79688H41.2891V5.43359H42.8125V4.36914C42.8125 3.14518 43.1803 2.20443 43.916 1.54688C44.6582 0.889323 45.6934 0.560547 47.0215 0.560547C47.373 0.560547 47.7441 0.589844 48.1348 0.648438C48.5254 0.700521 48.8314 0.759115 49.0527 0.824219L48.7988 3.35352C48.6165 3.30143 48.4245 3.26237 48.2227 3.23633C48.0208 3.21029 47.806 3.19727 47.5781 3.19727C47.1289 3.19727 46.7936 3.29818 46.5723 3.5C46.3509 3.70182 46.2402 3.99154 46.2402 4.36914V5.43359H48.6914V7.79688H46.2402V13.6855L48.1348 13.998V16H41.5723ZM54.8145 16.2051C53.7272 16.2051 52.7962 15.9805 52.0215 15.5312C51.2533 15.0755 50.6641 14.444 50.2539 13.6367C49.8503 12.8229 49.6484 11.8822 49.6484 10.8145V10.6191C49.6484 9.56445 49.8503 8.63346 50.2539 7.82617C50.6641 7.01888 51.2533 6.38737 52.0215 5.93164C52.7897 5.4694 53.7142 5.23828 54.7949 5.23828C55.8822 5.23828 56.8066 5.46615 57.5684 5.92188C58.3366 6.3776 58.9225 7.00911 59.3262 7.81641C59.7363 8.6237 59.9414 9.55794 59.9414 10.6191V10.8145C59.9414 11.8757 59.7363 12.8132 59.3262 13.627C58.9225 14.4342 58.3366 15.0658 57.5684 15.5215C56.8066 15.9772 55.8887 16.2051 54.8145 16.2051ZM54.8145 13.5977C55.2311 13.5977 55.5632 13.487 55.8105 13.2656C56.0645 13.0378 56.2467 12.7155 56.3574 12.2988C56.4746 11.8822 56.5332 11.3874 56.5332 10.8145V10.6191C56.5332 10.0658 56.4746 9.58398 56.3574 9.17383C56.2467 8.75716 56.0645 8.4349 55.8105 8.20703C55.5566 7.97266 55.2181 7.85547 54.7949 7.85547C54.3783 7.85547 54.043 7.97266 53.7891 8.20703C53.5352 8.4349 53.3529 8.75716 53.2422 9.17383C53.1315 9.58398 53.0762 10.0658 53.0762 10.6191V10.8145C53.0762 11.3939 53.1315 11.8919 53.2422 12.3086C53.3529 12.7253 53.5352 13.0443 53.7891 13.2656C54.043 13.487 54.3848 13.5977 54.8145 13.5977ZM60.6836 16V13.998L61.9336 13.6855V3.08984L60.4492 2.77734V0.765625H65.3613V13.6855L66.6016 13.998V16H60.6836ZM67.168 16V13.998L68.4082 13.6855V7.75781L66.9336 7.44531V5.43359H71.8359V13.6855L73.0664 13.998V16H67.168ZM68.3105 3.43164V0.765625H71.8359V3.43164H68.3105ZM78.9941 16.2051C77.9069 16.2051 76.9759 15.9805 76.2012 15.5312C75.4329 15.0755 74.8438 14.444 74.4336 13.6367C74.0299 12.8229 73.8281 11.8822 73.8281 10.8145V10.6191C73.8281 9.56445 74.0299 8.63346 74.4336 7.82617C74.8438 7.01888 75.4329 6.38737 76.2012 5.93164C76.9694 5.4694 77.8939 5.23828 78.9746 5.23828C80.0618 5.23828 80.9863 5.46615 81.748 5.92188C82.5163 6.3776 83.1022 7.00911 83.5059 7.81641C83.916 8.6237 84.1211 9.55794 84.1211 10.6191V10.8145C84.1211 11.8757 83.916 12.8132 83.5059 13.627C83.1022 14.4342 82.5163 15.0658 81.748 15.5215C80.9863 15.9772 80.0684 16.2051 78.9941 16.2051ZM78.9941 13.5977C79.4108 13.5977 79.7428 13.487 79.9902 13.2656C80.2441 13.0378 80.4264 12.7155 80.5371 12.2988C80.6543 11.8822 80.7129 11.3874 80.7129 10.8145V10.6191C80.7129 10.0658 80.6543 9.58398 80.5371 9.17383C80.4264 8.75716 80.2441 8.4349 79.9902 8.20703C79.7363 7.97266 79.3978 7.85547 78.9746 7.85547C78.5579 7.85547 78.2227 7.97266 77.9688 8.20703C77.7148 8.4349 77.5326 8.75716 77.4219 9.17383C77.3112 9.58398 77.2559 10.0658 77.2559 10.6191V10.8145C77.2559 11.3939 77.3112 11.8919 77.4219 12.3086C77.5326 12.7253 77.7148 13.0443 77.9688 13.2656C78.2227 13.487 78.5645 13.5977 78.9941 13.5977ZM85.8691 16V13.168H89.2773V16H85.8691Z" fill="#F4FA1A"/>
</svg>
