<svg width="26" height="20" viewBox="0 0 26 20" fill="none" xmlns="http://www.w3.org/2000/svg">
<path fill-rule="evenodd" clip-rule="evenodd" d="M13.0003 9.81126L0.205098 3.41446C0.252465 2.59917 0.609752 1.83284 1.20378 1.27243C1.79781 0.712007 2.58363 0.399913 3.4003 0.400063H22.6003C23.417 0.399913 24.2028 0.712007 24.7968 1.27243C25.3908 1.83284 25.7481 2.59917 25.7955 3.41446L13.0003 9.81126ZM12.9999 13.3888L25.7999 6.98877V16.4C25.7999 17.2487 25.4627 18.0626 24.8626 18.6627C24.2625 19.2628 23.4486 19.6 22.5999 19.6H3.39989C2.5512 19.6 1.73726 19.2628 1.13715 18.6627C0.537032 18.0626 0.19989 17.2487 0.19989 16.4V6.98877L12.9999 13.3888Z" fill="#FBBF24"/>
</svg>
