<svg width="26" height="20" viewBox="0 0 26 20" fill="none" xmlns="http://www.w3.org/2000/svg">
<path fill-rule="evenodd" clip-rule="evenodd" d="M13.0003 9.81122L0.205098 3.41442C0.252465 2.59913 0.609752 1.8328 1.20378 1.27239C1.79781 0.711969 2.58363 0.399875 3.4003 0.400024H22.6003C23.417 0.399875 24.2028 0.711969 24.7968 1.27239C25.3908 1.8328 25.7481 2.59913 25.7955 3.41442L13.0003 9.81122ZM12.9999 13.3887L25.7999 6.98873V16.3999C25.7999 17.2486 25.4627 18.0626 24.8626 18.6627C24.2625 19.2628 23.4486 19.5999 22.5999 19.5999H3.39989C2.5512 19.5999 1.73726 19.2628 1.13715 18.6627C0.537032 18.0626 0.19989 17.2486 0.19989 16.3999V6.98873L12.9999 13.3887Z" fill="#D8DE1A"/>
</svg>
