<svg width="24" height="24" viewBox="0 0 24 24" fill="none" xmlns="http://www.w3.org/2000/svg">
<g clip-path="url(#clip0_1_3548)">
<path d="M1.49989 1.6327C-0.386106 3.59133 -0.000105917 5.67194 -0.000105917 11.9928C-0.000105917 17.2418 -0.916106 22.5038 3.87789 23.7426C5.37489 24.1275 18.6389 24.1275 20.1339 23.7406C22.1299 23.2257 23.7539 21.607 23.9759 18.7845C24.0069 18.3906 24.0069 5.60195 23.9749 5.20003C23.7389 2.19359 21.8879 0.460915 19.4489 0.10998C18.8899 0.0289956 18.7779 0.00500013 15.9099 1.06543e-06C5.73689 0.00500013 3.50689 -0.447915 1.49989 1.6327Z" fill="#FBBF24"/>
<path d="M11.9979 3.13902C8.36694 3.13902 4.91894 2.81602 3.60194 6.19602C3.05794 7.59202 3.13694 9.40502 3.13694 12.001C3.13694 14.279 3.06394 16.42 3.60194 17.805C4.91594 21.187 8.39194 20.863 11.9959 20.863C15.4729 20.863 19.0579 21.225 20.3909 17.805C20.9359 16.395 20.8559 14.609 20.8559 12.001C20.8559 8.53902 21.0469 6.30402 19.3679 4.62602C17.6679 2.92602 15.3689 3.13902 11.9939 3.13902H11.9979ZM11.2039 4.73602C18.7779 4.72402 19.7419 3.88202 19.2099 15.579C19.0209 19.716 15.8709 19.262 11.9989 19.262C4.93894 19.262 4.73594 19.06 4.73594 11.997C4.73594 4.85202 5.29594 4.74002 11.2039 4.73402V4.73602ZM16.7279 6.20702C16.1409 6.20702 15.6649 6.68302 15.6649 7.27002C15.6649 7.85702 16.1409 8.33302 16.7279 8.33302C17.3149 8.33302 17.7909 7.85702 17.7909 7.27002C17.7909 6.68302 17.3149 6.20702 16.7279 6.20702ZM11.9979 7.45002C9.48494 7.45002 7.44794 9.48802 7.44794 12.001C7.44794 14.514 9.48494 16.551 11.9979 16.551C14.5109 16.551 16.5469 14.514 16.5469 12.001C16.5469 9.48802 14.5109 7.45002 11.9979 7.45002ZM11.9979 9.04702C15.9029 9.04702 15.9079 14.955 11.9979 14.955C8.09394 14.955 8.08794 9.04702 11.9979 9.04702Z" fill="#FAFAFA"/>
</g>
<defs>
<clipPath id="clip0_1_3548">
<rect width="24" height="24" fill="white"/>
</clipPath>
</defs>
</svg>
