<svg width="24" height="24" viewBox="0 0 24 24" fill="none" xmlns="http://www.w3.org/2000/svg">
<g clip-path="url(#clip0_1_3729)">
<path d="M1.49989 1.63273C-0.386106 3.59137 -0.000105917 5.67198 -0.000105917 11.9928C-0.000105917 17.2418 -0.916106 22.5038 3.87789 23.7426C5.37489 24.1275 18.6389 24.1275 20.1339 23.7406C22.1299 23.2257 23.7539 21.607 23.9759 18.7845C24.0069 18.3906 24.0069 5.60199 23.9749 5.20007C23.7389 2.19363 21.8879 0.460953 19.4489 0.110019C18.8899 0.0290338 18.7779 0.00503828 15.9099 3.92123e-05C5.73689 0.00503828 3.50689 -0.447877 1.49989 1.63273V1.63273Z" fill="#D8DE1A"/>
<path d="M11.9979 3.13905C8.36694 3.13905 4.91894 2.81605 3.60194 6.19605C3.05794 7.59205 3.13694 9.40505 3.13694 12.001C3.13694 14.279 3.06394 16.42 3.60194 17.805C4.91594 21.187 8.39194 20.863 11.9959 20.863C15.4729 20.863 19.0579 21.225 20.3909 17.805C20.9359 16.395 20.8559 14.609 20.8559 12.001C20.8559 8.53905 21.0469 6.30405 19.3679 4.62605C17.6679 2.92605 15.3689 3.13905 11.9939 3.13905H11.9979ZM11.2039 4.73605C18.7779 4.72405 19.7419 3.88205 19.2099 15.579C19.0209 19.716 15.8709 19.262 11.9989 19.262C4.93894 19.262 4.73594 19.06 4.73594 11.997C4.73594 4.85205 5.29594 4.74005 11.2039 4.73405V4.73605ZM16.7279 6.20705C16.1409 6.20705 15.6649 6.68305 15.6649 7.27005C15.6649 7.85705 16.1409 8.33305 16.7279 8.33305C17.3149 8.33305 17.7909 7.85705 17.7909 7.27005C17.7909 6.68305 17.3149 6.20705 16.7279 6.20705V6.20705ZM11.9979 7.45005C9.48494 7.45005 7.44794 9.48805 7.44794 12.001C7.44794 14.514 9.48494 16.551 11.9979 16.551C14.5109 16.551 16.5469 14.514 16.5469 12.001C16.5469 9.48805 14.5109 7.45005 11.9979 7.45005V7.45005ZM11.9979 9.04705C15.9029 9.04705 15.9079 14.955 11.9979 14.955C8.09394 14.955 8.08794 9.04705 11.9979 9.04705Z" fill="#191919"/>
</g>
<defs>
<clipPath id="clip0_1_3729">
<rect width="24" height="24" fill="white"/>
</clipPath>
</defs>
</svg>
