<svg width="24" height="24" viewBox="0 0 24 24" fill="none" xmlns="http://www.w3.org/2000/svg">
<path fill-rule="evenodd" clip-rule="evenodd" d="M0 2.882C0 1.291 1.291 0 2.882 0C4.472 0 5.763 1.291 5.764 2.882C5.764 4.473 4.473 5.791 2.882 5.791C1.291 5.791 0 4.473 0 2.882ZM23.9941 24V23.999H24.0001V15.197C24.0001 10.891 23.0731 7.57405 18.0391 7.57405C15.6191 7.57405 13.9951 8.90205 13.3321 10.161H13.2621V7.97605H8.48906V23.999H13.4591V16.065C13.4591 13.976 13.8551 11.956 16.4421 11.956C18.9911 11.956 19.0291 14.34 19.0291 16.199V24H23.9941ZM0.396094 7.97695H5.37209V24H0.396094V7.97695Z" fill="#FBBF24"/>
</svg>
