<svg width="75" height="75" viewBox="0 0 75 75" fill="none" xmlns="http://www.w3.org/2000/svg">
<g clip-path="url(#clip0_386_79)">
<path d="M20.1923 5.76923C19.4273 5.76923 18.6935 5.46532 18.1526 4.92435C17.6116 4.38338 17.3077 3.64966 17.3077 2.88461C17.3077 2.11957 17.6116 1.38585 18.1526 0.844881C18.6935 0.303911 19.4273 -9.53674e-07 20.1923 -9.53674e-07C20.9574 -9.53674e-07 21.6911 0.303911 22.232 0.844881C22.773 1.38585 23.0769 2.11957 23.0769 2.88461C23.0769 3.64966 22.773 4.38338 22.232 4.92435C21.6911 5.46532 20.9574 5.76923 20.1923 5.76923ZM2.88462 5.76923C2.11957 5.76923 1.38585 5.46532 0.844884 4.92435C0.303914 4.38338 0 3.64966 0 2.88461C0 2.11957 0.303914 1.38585 0.844884 0.844881C1.38585 0.303911 2.11957 -9.53674e-07 2.88462 -9.53674e-07C3.64966 -9.53674e-07 4.38338 0.303911 4.92435 0.844881C5.46532 1.38585 5.76923 2.11957 5.76923 2.88461C5.76923 3.64966 5.46532 4.38338 4.92435 4.92435C4.38338 5.46532 3.64966 5.76923 2.88462 5.76923ZM54.8077 23.0769C54.0426 23.0769 53.3089 22.773 52.768 22.232C52.227 21.6911 51.9231 20.9574 51.9231 20.1923C51.9231 19.4273 52.227 18.6935 52.768 18.1526C53.3089 17.6116 54.0426 17.3077 54.8077 17.3077C55.5727 17.3077 56.3065 17.6116 56.8474 18.1526C57.3884 18.6935 57.6923 19.4273 57.6923 20.1923C57.6923 20.9574 57.3884 21.6911 56.8474 22.232C56.3065 22.773 55.5727 23.0769 54.8077 23.0769ZM37.5 23.0769C36.735 23.0769 36.0012 22.773 35.4603 22.232C34.9193 21.6911 34.6154 20.9574 34.6154 20.1923C34.6154 19.4273 34.9193 18.6935 35.4603 18.1526C36.0012 17.6116 36.735 17.3077 37.5 17.3077C38.265 17.3077 38.9988 17.6116 39.5397 18.1526C40.0807 18.6935 40.3846 19.4273 40.3846 20.1923C40.3846 20.9574 40.0807 21.6911 39.5397 22.232C38.9988 22.773 38.265 23.0769 37.5 23.0769ZM20.1923 23.0769C19.4273 23.0769 18.6935 22.773 18.1526 22.232C17.6116 21.6911 17.3077 20.9574 17.3077 20.1923C17.3077 19.4273 17.6116 18.6935 18.1526 18.1526C18.6935 17.6116 19.4273 17.3077 20.1923 17.3077C20.9574 17.3077 21.6911 17.6116 22.232 18.1526C22.773 18.6935 23.0769 19.4273 23.0769 20.1923C23.0769 20.9574 22.773 21.6911 22.232 22.232C21.6911 22.773 20.9574 23.0769 20.1923 23.0769ZM2.88462 23.0769C2.11957 23.0769 1.38585 22.773 0.844884 22.232C0.303914 21.6911 0 20.9574 0 20.1923C0 19.4273 0.303914 18.6935 0.844884 18.1526C1.38585 17.6116 2.11957 17.3077 2.88462 17.3077C3.64966 17.3077 4.38338 17.6116 4.92435 18.1526C5.46532 18.6935 5.76923 19.4273 5.76923 20.1923C5.76923 20.9574 5.46532 21.6911 4.92435 22.232C4.38338 22.773 3.64966 23.0769 2.88462 23.0769ZM54.8077 40.3846C54.0426 40.3846 53.3089 40.0807 52.768 39.5397C52.227 38.9988 51.9231 38.265 51.9231 37.5C51.9231 36.735 52.227 36.0012 52.768 35.4603C53.3089 34.9193 54.0426 34.6154 54.8077 34.6154C55.5727 34.6154 56.3065 34.9193 56.8474 35.4603C57.3884 36.0012 57.6923 36.735 57.6923 37.5C57.6923 38.265 57.3884 38.9988 56.8474 39.5397C56.3065 40.0807 55.5727 40.3846 54.8077 40.3846ZM37.5 40.3846C36.735 40.3846 36.0012 40.0807 35.4603 39.5397C34.9193 38.9988 34.6154 38.265 34.6154 37.5C34.6154 36.735 34.9193 36.0012 35.4603 35.4603C36.0012 34.9193 36.735 34.6154 37.5 34.6154C38.265 34.6154 38.9988 34.9193 39.5397 35.4603C40.0807 36.0012 40.3846 36.735 40.3846 37.5C40.3846 38.265 40.0807 38.9988 39.5397 39.5397C38.9988 40.0807 38.265 40.3846 37.5 40.3846ZM20.1923 40.3846C19.4273 40.3846 18.6935 40.0807 18.1526 39.5397C17.6116 38.9988 17.3077 38.265 17.3077 37.5C17.3077 36.735 17.6116 36.0012 18.1526 35.4603C18.6935 34.9193 19.4273 34.6154 20.1923 34.6154C20.9574 34.6154 21.6911 34.9193 22.232 35.4603C22.773 36.0012 23.0769 36.735 23.0769 37.5C23.0769 38.265 22.773 38.9988 22.232 39.5397C21.6911 40.0807 20.9574 40.3846 20.1923 40.3846ZM2.88462 40.3846C2.11957 40.3846 1.38585 40.0807 0.844884 39.5397C0.303914 38.9988 0 38.265 0 37.5C0 36.735 0.303914 36.0012 0.844884 35.4603C1.38585 34.9193 2.11957 34.6154 2.88462 34.6154C3.64966 34.6154 4.38338 34.9193 4.92435 35.4603C5.46532 36.0012 5.76923 36.735 5.76923 37.5C5.76923 38.265 5.46532 38.9988 4.92435 39.5397C4.38338 40.0807 3.64966 40.3846 2.88462 40.3846ZM72.1154 57.6923C71.3503 57.6923 70.6166 57.3884 70.0757 56.8474C69.5347 56.3065 69.2308 55.5727 69.2308 54.8077C69.2308 54.0426 69.5347 53.3089 70.0757 52.768C70.6166 52.227 71.3503 51.9231 72.1154 51.9231C72.8804 51.9231 73.6141 52.227 74.1551 52.768C74.6961 53.3089 75 54.0426 75 54.8077C75 55.5727 74.6961 56.3065 74.1551 56.8474C73.6141 57.3884 72.8804 57.6923 72.1154 57.6923ZM54.8077 57.6923C54.0426 57.6923 53.3089 57.3884 52.768 56.8474C52.227 56.3065 51.9231 55.5727 51.9231 54.8077C51.9231 54.0426 52.227 53.3089 52.768 52.768C53.3089 52.227 54.0426 51.9231 54.8077 51.9231C55.5727 51.9231 56.3065 52.227 56.8474 52.768C57.3884 53.3089 57.6923 54.0426 57.6923 54.8077C57.6923 55.5727 57.3884 56.3065 56.8474 56.8474C56.3065 57.3884 55.5727 57.6923 54.8077 57.6923ZM37.5 57.6923C36.735 57.6923 36.0012 57.3884 35.4603 56.8474C34.9193 56.3065 34.6154 55.5727 34.6154 54.8077C34.6154 54.0426 34.9193 53.3089 35.4603 52.768C36.0012 52.227 36.735 51.9231 37.5 51.9231C38.265 51.9231 38.9988 52.227 39.5397 52.768C40.0807 53.3089 40.3846 54.0426 40.3846 54.8077C40.3846 55.5727 40.0807 56.3065 39.5397 56.8474C38.9988 57.3884 38.265 57.6923 37.5 57.6923ZM20.1923 57.6923C19.4273 57.6923 18.6935 57.3884 18.1526 56.8474C17.6116 56.3065 17.3077 55.5727 17.3077 54.8077C17.3077 54.0426 17.6116 53.3089 18.1526 52.768C18.6935 52.227 19.4273 51.9231 20.1923 51.9231C20.9574 51.9231 21.6911 52.227 22.232 52.768C22.773 53.3089 23.0769 54.0426 23.0769 54.8077C23.0769 55.5727 22.773 56.3065 22.232 56.8474C21.6911 57.3884 20.9574 57.6923 20.1923 57.6923ZM2.88462 57.6923C2.11957 57.6923 1.38585 57.3884 0.844884 56.8474C0.303914 56.3065 0 55.5727 0 54.8077C0 54.0426 0.303914 53.3089 0.844884 52.768C1.38585 52.227 2.11957 51.9231 2.88462 51.9231C3.64966 51.9231 4.38338 52.227 4.92435 52.768C5.46532 53.3089 5.76923 54.0426 5.76923 54.8077C5.76923 55.5727 5.46532 56.3065 4.92435 56.8474C4.38338 57.3884 3.64966 57.6923 2.88462 57.6923ZM72.1154 75C71.3503 75 70.6166 74.6961 70.0757 74.1551C69.5347 73.6141 69.2308 72.8804 69.2308 72.1154C69.2308 71.3503 69.5347 70.6166 70.0757 70.0757C70.6166 69.5347 71.3503 69.2308 72.1154 69.2308C72.8804 69.2308 73.6141 69.5347 74.1551 70.0757C74.6961 70.6166 75 71.3503 75 72.1154C75 72.8804 74.6961 73.6141 74.1551 74.1551C73.6141 74.6961 72.8804 75 72.1154 75ZM54.8077 75C54.0426 75 53.3089 74.6961 52.768 74.1551C52.227 73.6141 51.9231 72.8804 51.9231 72.1154C51.9231 71.3503 52.227 70.6166 52.768 70.0757C53.3089 69.5347 54.0426 69.2308 54.8077 69.2308C55.5727 69.2308 56.3065 69.5347 56.8474 70.0757C57.3884 70.6166 57.6923 71.3503 57.6923 72.1154C57.6923 72.8804 57.3884 73.6141 56.8474 74.1551C56.3065 74.6961 55.5727 75 54.8077 75ZM37.5 75C36.735 75 36.0012 74.6961 35.4603 74.1551C34.9193 73.6141 34.6154 72.8804 34.6154 72.1154C34.6154 71.3503 34.9193 70.6166 35.4603 70.0757C36.0012 69.5347 36.735 69.2308 37.5 69.2308C38.265 69.2308 38.9988 69.5347 39.5397 70.0757C40.0807 70.6166 40.3846 71.3503 40.3846 72.1154C40.3846 72.8804 40.0807 73.6141 39.5397 74.1551C38.9988 74.6961 38.265 75 37.5 75ZM20.1923 75C19.4273 75 18.6935 74.6961 18.1526 74.1551C17.6116 73.6141 17.3077 72.8804 17.3077 72.1154C17.3077 71.3503 17.6116 70.6166 18.1526 70.0757C18.6935 69.5347 19.4273 69.2308 20.1923 69.2308C20.9574 69.2308 21.6911 69.5347 22.232 70.0757C22.773 70.6166 23.0769 71.3503 23.0769 72.1154C23.0769 72.8804 22.773 73.6141 22.232 74.1551C21.6911 74.6961 20.9574 75 20.1923 75ZM2.88462 75C2.11957 75 1.38585 74.6961 0.844884 74.1551C0.303914 73.6141 0 72.8804 0 72.1154C0 71.3503 0.303914 70.6166 0.844884 70.0757C1.38585 69.5347 2.11957 69.2308 2.88462 69.2308C3.64966 69.2308 4.38338 69.5347 4.92435 70.0757C5.46532 70.6166 5.76923 71.3503 5.76923 72.1154C5.76923 72.8804 5.46532 73.6141 4.92435 74.1551C4.38338 74.6961 3.64966 75 2.88462 75Z" fill="url(#paint0_linear_386_79)"/>
</g>
<defs>
<linearGradient id="paint0_linear_386_79" x1="37.5" y1="0" x2="37.5" y2="75" gradientUnits="userSpaceOnUse">
<stop stop-color="#35B3FF"/>
<stop offset="0.495192" stop-color="#812FFF"/>
<stop offset="1" stop-color="#E737FF"/>
</linearGradient>
<clipPath id="clip0_386_79">
<rect width="75" height="75" fill="white" transform="matrix(1 0 0 -1 0 75)"/>
</clipPath>
</defs>
</svg>
