<svg width="33" height="32" viewBox="0 0 33 32" fill="none" xmlns="http://www.w3.org/2000/svg">
<path d="M23.713 19.6262C23.713 21.028 24.1118 21.587 25.1548 21.587C27.4793 21.587 28.9595 18.6249 28.9595 13.6988C28.9595 6.16938 23.4727 2.56487 16.6224 2.56487C9.5753 2.56487 3.16562 7.29078 3.16562 16.2219C3.16562 24.7526 8.77263 29.3984 17.3834 29.3984C20.307 29.3984 22.2695 29.078 25.2716 28.0768L25.9157 30.7584C22.952 31.7213 19.7847 32 17.3433 32C6.04923 32 0 25.7922 0 16.2203C0 6.56821 7.01043 0 16.6625 0C26.7151 0 32.04 6.00751 32.04 13.3767C32.04 19.6245 30.0793 24.3905 23.9116 24.3905C21.1064 24.3905 19.2657 23.2691 19.0254 20.7843C18.3045 23.5478 16.3821 24.3905 13.7772 24.3905C10.2929 24.3905 7.36921 21.7055 7.36921 16.3004C7.36921 10.8536 9.93408 7.48936 14.5398 7.48936C16.9829 7.48936 18.5048 8.45056 19.1823 9.97246L20.3454 7.84981H23.7096V19.6262H23.713ZM18.7885 14.3396C18.7885 12.1385 17.1448 11.2157 15.7831 11.2157C14.3012 11.2157 12.6608 12.4155 12.6608 15.9416C12.6608 18.7451 13.9024 20.307 15.7831 20.307C17.1047 20.307 18.7885 19.466 18.7885 17.1431V14.3396Z" fill="#F4FA1A"/>
</svg>
