<svg width="25" height="25" viewBox="0 0 25 25" fill="none" xmlns="http://www.w3.org/2000/svg">
<path d="M11.25 15H13.75C14.1042 15 14.4012 14.88 14.6412 14.64C14.8812 14.4 15.0008 14.1033 15 13.75C15 13.3958 14.88 13.0987 14.64 12.8587C14.4 12.6187 14.1033 12.4992 13.75 12.5H11.25C10.8958 12.5 10.5988 12.62 10.3588 12.86C10.1188 13.1 9.99917 13.3967 10 13.75C10 14.1042 10.12 14.4012 10.36 14.6412C10.6 14.8812 10.8967 15.0008 11.25 15ZM11.25 11.25H18.75C19.1042 11.25 19.4012 11.13 19.6412 10.89C19.8812 10.65 20.0008 10.3533 20 10C20 9.64583 19.88 9.34875 19.64 9.10875C19.4 8.86875 19.1033 8.74917 18.75 8.75H11.25C10.8958 8.75 10.5988 8.87 10.3588 9.11C10.1188 9.35 9.99917 9.64667 10 10C10 10.3542 10.12 10.6512 10.36 10.8912C10.6 11.1312 10.8967 11.2508 11.25 11.25ZM11.25 7.5H18.75C19.1042 7.5 19.4012 7.38 19.6412 7.14C19.8812 6.9 20.0008 6.60333 20 6.25C20 5.89583 19.88 5.59875 19.64 5.35875C19.4 5.11875 19.1033 4.99917 18.75 5H11.25C10.8958 5 10.5988 5.12 10.3588 5.36C10.1188 5.6 9.99917 5.89667 10 6.25C10 6.60417 10.12 6.90125 10.36 7.14125C10.6 7.38125 10.8967 7.50083 11.25 7.5ZM7.5 20C6.8125 20 6.22375 19.755 5.73375 19.265C5.24375 18.775 4.99917 18.1867 5 17.5V2.5C5 1.8125 5.245 1.22375 5.735 0.733752C6.225 0.243752 6.81333 -0.000831211 7.5 2.12224e-06H22.5C23.1875 2.12224e-06 23.7762 0.245002 24.2662 0.735002C24.7562 1.225 25.0008 1.81333 25 2.5V17.5C25 18.1875 24.755 18.7762 24.265 19.2662C23.775 19.7562 23.1867 20.0008 22.5 20H7.5ZM7.5 17.5H22.5V2.5H7.5V17.5ZM2.5 25C1.8125 25 1.22375 24.755 0.733752 24.265C0.243752 23.775 -0.000831211 23.1867 2.12224e-06 22.5V6.25C2.12224e-06 5.89583 0.120002 5.59875 0.360002 5.35875C0.600002 5.11875 0.896669 4.99917 1.25 5C1.60417 5 1.90125 5.12 2.14125 5.36C2.38125 5.6 2.50083 5.89667 2.5 6.25V22.5H18.75C19.1042 22.5 19.4012 22.62 19.6412 22.86C19.8812 23.1 20.0008 23.3967 20 23.75C20 24.1042 19.88 24.4012 19.64 24.6412C19.4 24.8812 19.1033 25.0008 18.75 25H2.5Z" fill="#F4FA1A"/>
</svg>
