<svg width="25" height="27" viewBox="0 0 25 27" fill="none" xmlns="http://www.w3.org/2000/svg">
<path d="M11.25 15.9588H13.75C14.1042 15.9588 14.4012 15.8378 14.6412 15.5959C14.8812 15.3539 15.0008 15.0548 15 14.6985C15 14.3414 14.88 14.0419 14.64 13.7999C14.4 13.558 14.1033 13.4374 13.75 13.4382H11.25C10.8958 13.4382 10.5988 13.5592 10.3588 13.8012C10.1188 14.0432 9.99917 14.3423 10 14.6985C10 15.0556 10.12 15.3551 10.36 15.5971C10.6 15.8391 10.8967 15.9597 11.25 15.9588ZM11.25 12.1779H18.75C19.1042 12.1779 19.4012 12.0569 19.6412 11.815C19.8812 11.573 20.0008 11.2739 20 10.9176C20 10.5605 19.88 10.261 19.64 10.019C19.4 9.77705 19.1033 9.65648 18.75 9.65732H11.25C10.8958 9.65732 10.5988 9.77831 10.3588 10.0203C10.1188 10.2623 9.99917 10.5614 10 10.9176C10 11.2747 10.12 11.5742 10.36 11.8162C10.6 12.0582 10.8967 12.1788 11.25 12.1779ZM11.25 8.39702H18.75C19.1042 8.39702 19.4012 8.27603 19.6412 8.03405C19.8812 7.79207 20.0008 7.49296 20 7.13672C20 6.77963 19.88 6.4801 19.64 6.23812C19.4 5.99614 19.1033 5.87557 18.75 5.87641H11.25C10.8958 5.87641 10.5988 5.9974 10.3588 6.23938C10.1188 6.48136 9.99917 6.78047 10 7.13672C10 7.4938 10.12 7.79333 10.36 8.03531C10.6 8.27729 10.8967 8.39786 11.25 8.39702ZM7.5 21C6.8125 21 6.22375 20.753 5.73375 20.259C5.24375 19.7649 4.99917 19.1718 5 18.4794V3.35581C5 2.66264 5.245 2.06904 5.735 1.575C6.225 1.08097 6.81333 0.834367 7.5 0.835207H22.5C23.1875 0.835207 23.7762 1.08223 24.2662 1.57626C24.7562 2.0703 25.0008 2.66349 25 3.35581V18.4794C25 19.1726 24.755 19.7662 24.265 20.2602C23.775 20.7543 23.1867 21.0009 22.5 21H7.5ZM7.5 18.4794H22.5V3.35581H7.5V18.4794ZM2.5 26.0412C1.8125 26.0412 1.22375 25.7942 0.733752 25.3002C0.243752 24.8061 -0.000831211 24.213 2.12224e-06 23.5206V7.13672C2.12224e-06 6.77963 0.120002 6.4801 0.360002 6.23812C0.600002 5.99614 0.896669 5.87557 1.25 5.87641C1.60417 5.87641 1.90125 5.9974 2.14125 6.23938C2.38125 6.48136 2.50083 6.78047 2.5 7.13672V23.5206H18.75C19.1042 23.5206 19.4012 23.6416 19.6412 23.8836C19.8812 24.1256 20.0008 24.4247 20 24.7809C20 25.138 19.88 25.4376 19.64 25.6795C19.4 25.9215 19.1033 26.0421 18.75 26.0412H2.5Z" fill="#FBBF24"/>
</svg>
