<svg width="30" height="26" viewBox="0 0 30 26" fill="none" xmlns="http://www.w3.org/2000/svg">
<path d="M14.2192 25.8708C13.9804 25.8708 13.7474 25.8405 13.52 25.7798C13.2927 25.7191 13.0721 25.6291 12.8581 25.5097L5.69483 21.6096C5.21728 21.3448 4.84717 20.99 4.58452 20.5451C4.32187 20.1002 4.19054 19.6004 4.19054 19.0457V12.1122L0.752148 10.1983C0.489493 10.0539 0.298471 9.87331 0.179083 9.65664C0.0596943 9.43997 0 9.19923 0 8.93441C0 8.66959 0.0596943 8.42884 0.179083 8.21217C0.298471 7.9955 0.489493 7.81494 0.752148 7.6705L12.8581 1.02593C13.073 0.905562 13.2942 0.815042 13.5215 0.754374C13.7488 0.693707 13.9814 0.663855 14.2192 0.664817C14.458 0.664817 14.691 0.695151 14.9183 0.755819C15.1456 0.816487 15.3663 0.906525 15.5802 1.02593L29.2263 8.53718C29.4651 8.65755 29.6504 8.83233 29.7822 9.06152C29.914 9.29071 29.9794 9.53723 29.9785 9.80109V19.0457C29.9785 19.455 29.8409 19.7983 29.5659 20.0756C29.2908 20.3529 28.9508 20.4911 28.5458 20.4902C28.1399 20.4902 27.7994 20.3515 27.5243 20.0742C27.2492 19.7968 27.1122 19.454 27.1131 19.0457V10.5233L24.2478 12.1122V19.0457C24.2478 19.5994 24.1165 20.0992 23.8538 20.5451C23.5912 20.9909 23.2211 21.3458 22.7435 21.6096L15.5802 25.5097C15.3653 25.6301 15.1447 25.7206 14.9183 25.7813C14.692 25.8419 14.4589 25.8718 14.2192 25.8708ZM14.2192 14.2789L24.0329 8.93441L14.2192 3.58987L4.40544 8.93441L14.2192 14.2789ZM14.2192 22.9819L21.3825 19.0818V13.6289L15.616 16.8429C15.4011 16.9633 15.1743 17.0538 14.9355 17.1144C14.6967 17.1751 14.458 17.205 14.2192 17.204C13.9804 17.204 13.7416 17.1737 13.5028 17.113C13.2641 17.0523 13.0372 16.9623 12.8223 16.8429L7.05586 13.6289V19.0818L14.2192 22.9819Z" fill="#FBBF24"/>
</svg>
