<svg width="30" height="25" viewBox="0 0 30 25" fill="none" xmlns="http://www.w3.org/2000/svg">
<path d="M14.2192 25C13.9804 25 13.7474 24.9699 13.52 24.9097C13.2927 24.8495 13.0721 24.7602 12.8581 24.6418L5.69483 20.7736C5.21728 20.511 4.84717 20.159 4.58452 19.7178C4.32187 19.2765 4.19054 18.7808 4.19054 18.2306V11.3539L0.752148 9.45559C0.489493 9.31233 0.298471 9.13324 0.179083 8.91834C0.0596943 8.70345 0 8.46467 0 8.20201C0 7.93936 0.0596943 7.70058 0.179083 7.48568C0.298471 7.27078 0.489493 7.0917 0.752148 6.94843L12.8581 0.358188C13.073 0.238799 13.2942 0.149019 13.5215 0.0888471C13.7488 0.0286753 13.9814 -0.000932723 14.2192 2.23856e-05C14.458 2.23856e-05 14.691 0.0301082 14.9183 0.09028C15.1456 0.150452 15.3663 0.239755 15.5802 0.358188L29.2263 7.80803C29.4651 7.92742 29.6504 8.10077 29.7822 8.32809C29.914 8.5554 29.9794 8.79991 29.9785 9.06161V18.2306C29.9785 18.6366 29.8409 18.9771 29.5659 19.2521C29.2908 19.5272 28.9508 19.6643 28.5458 19.6633C28.1399 19.6633 27.7994 19.5258 27.5243 19.2507C27.2492 18.9756 27.1122 18.6356 27.1131 18.2306V9.77794L24.2478 11.3539V18.2306C24.2478 18.7798 24.1165 19.2755 23.8538 19.7178C23.5912 20.16 23.2211 20.5119 22.7435 20.7736L15.5802 24.6418C15.3653 24.7612 15.1447 24.851 14.9183 24.9112C14.692 24.9713 14.4589 25.0009 14.2192 25ZM14.2192 13.5029L24.0329 8.20201L14.2192 2.90116L4.40544 8.20201L14.2192 13.5029ZM14.2192 22.1347L21.3825 18.2665V12.8582L15.616 16.0458C15.4011 16.1652 15.1743 16.255 14.9355 16.3152C14.6967 16.3754 14.458 16.405 14.2192 16.404C13.9804 16.404 13.7416 16.3739 13.5028 16.3137C13.2641 16.2536 13.0372 16.1643 12.8223 16.0458L7.05586 12.8582V18.2665L14.2192 22.1347Z" fill="#F4FA1A"/>
</svg>
