<svg width="30" height="35" viewBox="0 0 30 35" fill="none" xmlns="http://www.w3.org/2000/svg">
<path fill-rule="evenodd" clip-rule="evenodd" d="M15 0C14.558 0 14.134 0.184374 13.8215 0.512563C13.5089 0.840752 13.3333 1.28587 13.3333 1.75V5.25H3.33333C2.44928 5.25 1.60143 5.61875 0.976311 6.27513C0.351189 6.9315 0 7.82174 0 8.75V31.5C0 32.4283 0.351189 33.3185 0.976311 33.9749C1.60143 34.6312 2.44928 35 3.33333 35H26.6667C27.5507 35 28.3986 34.6312 29.0237 33.9749C29.6488 33.3185 30 32.4283 30 31.5V8.75C30 7.82174 29.6488 6.9315 29.0237 6.27513C28.3986 5.61875 27.5507 5.25 26.6667 5.25H16.6667V1.75C16.6667 1.28587 16.4911 0.840752 16.1785 0.512563C15.8659 0.184374 15.442 0 15 0ZM16.6667 5.25V20.699L19.7133 17.5C20.0258 17.1716 20.4498 16.9871 20.8919 16.9869C21.334 16.9867 21.7581 17.171 22.0708 17.4991C22.3836 17.8273 22.5593 18.2724 22.5595 18.7366C22.5597 19.2009 22.3842 19.6461 22.0717 19.9745L16.4717 25.8528C16.081 26.2626 15.5514 26.4928 14.9992 26.4928C14.4469 26.4928 13.9173 26.2626 13.5267 25.8528L7.92833 19.9745C7.77359 19.8119 7.65087 19.6189 7.56716 19.4065C7.48346 19.1941 7.44042 18.9665 7.4405 18.7366C7.44057 18.5068 7.48377 18.2792 7.56761 18.0668C7.65146 17.8545 7.77432 17.6616 7.92917 17.4991C8.08402 17.3366 8.26783 17.2078 8.47011 17.1199C8.67239 17.032 8.88917 16.9868 9.10809 16.9869C9.327 16.987 9.54376 17.0323 9.74598 17.1204C9.9482 17.2084 10.1319 17.3374 10.2867 17.5L13.3333 20.699V5.25H16.6667Z" fill="black"/>
</svg>
