<svg width="28" height="26" viewBox="0 0 28 26" fill="none" xmlns="http://www.w3.org/2000/svg">
<path d="M15.4375 25.2666C14.9375 25.2666 14.5783 25.1036 14.36 24.7776C14.1417 24.4516 14.1154 24.0475 14.2813 23.5652L18.8438 11.3718C18.9688 11.0357 19.2033 10.7471 19.5475 10.5059C19.8917 10.2648 20.2508 10.1438 20.625 10.143C20.9792 10.143 21.3333 10.264 21.6875 10.5059C22.0417 10.7479 22.2812 11.0365 22.4062 11.3718L26.9687 23.5652C27.1354 24.0483 27.1096 24.4529 26.8912 24.7789C26.6729 25.1049 26.3029 25.2674 25.7812 25.2666C25.5521 25.2666 25.3437 25.1931 25.1562 25.046C24.9687 24.899 24.8333 24.7205 24.75 24.5104L23.6875 21.4227H17.625L16.5312 24.5104C16.4479 24.7205 16.3021 24.899 16.0938 25.046C15.8854 25.1931 15.6667 25.2666 15.4375 25.2666ZM18.375 19.2171H22.875L20.6875 12.9786H20.5625L18.375 19.2171ZM7.6875 8.31553C8.02083 8.92467 8.375 9.48677 8.75 10.0018C9.125 10.5169 9.5625 11.047 10.0625 11.5923C10.9792 10.5841 11.7396 9.54978 12.3438 8.48945C12.9479 7.42912 13.4583 6.29989 13.875 5.10176H1.25C0.895837 5.10176 0.598754 4.98077 0.358754 4.73879C0.118754 4.49681 -0.000829008 4.1977 4.32526e-06 3.84146C4.32526e-06 3.48437 0.120004 3.18484 0.360004 2.94286C0.600004 2.70088 0.896671 2.58031 1.25 2.58116H8.75V1.32085C8.75 0.963768 8.87 0.664236 9.11 0.422258C9.35 0.18028 9.64667 0.059711 10 0.0605512C10.3542 0.0605512 10.6513 0.18154 10.8913 0.423518C11.1313 0.665496 11.2508 0.964608 11.25 1.32085V2.58116H18.75C19.1042 2.58116 19.4012 2.70214 19.6412 2.94412C19.8812 3.1861 20.0008 3.48521 20 3.84146C20 4.19854 19.88 4.49807 19.64 4.74005C19.4 4.98203 19.1033 5.1026 18.75 5.10176H16.375C15.9375 6.59312 15.3438 8.04246 14.5938 9.4498C13.8438 10.8571 12.9167 12.1805 11.8125 13.4198L14.8125 16.5075L13.875 19.0911L10 15.1842L4.625 20.6035C4.39584 20.8345 4.10417 20.9501 3.75 20.9501C3.39584 20.9501 3.10417 20.8345 2.875 20.6035C2.64584 20.3724 2.53125 20.0783 2.53125 19.7213C2.53125 19.3642 2.64584 19.0701 2.875 18.839L8.3125 13.3567C7.75 12.7056 7.22917 12.049 6.75 11.3869C6.27084 10.7248 5.84375 10.027 5.46875 9.29352C5.23959 8.85158 5.22917 8.46256 5.4375 8.12648C5.64584 7.7904 6.01042 7.62236 6.53125 7.62236C6.73959 7.62236 6.95834 7.69084 7.1875 7.82779C7.41667 7.96474 7.58334 8.12732 7.6875 8.31553Z" fill="#FBBF24"/>
</svg>
