<svg width="28" height="25" viewBox="0 0 28 25" fill="none" xmlns="http://www.w3.org/2000/svg">
<path d="M15.4375 25C14.9375 25 14.5783 24.8383 14.36 24.515C14.1417 24.1917 14.1154 23.7908 14.2813 23.3125L18.8438 11.2188C18.9688 10.8854 19.2033 10.5992 19.5475 10.36C19.8917 10.1208 20.2508 10.0008 20.625 10C20.9792 10 21.3333 10.12 21.6875 10.36C22.0417 10.6 22.2812 10.8863 22.4062 11.2188L26.9687 23.3125C27.1354 23.7917 27.1096 24.1929 26.8912 24.5162C26.6729 24.8396 26.3029 25.0008 25.7812 25C25.5521 25 25.3437 24.9271 25.1562 24.7812C24.9687 24.6354 24.8333 24.4583 24.75 24.25L23.6875 21.1875H17.625L16.5312 24.25C16.4479 24.4583 16.3021 24.6354 16.0938 24.7812C15.8854 24.9271 15.6667 25 15.4375 25ZM18.375 19H22.875L20.6875 12.8125H20.5625L18.375 19ZM7.6875 8.1875C8.02083 8.79167 8.375 9.34917 8.75 9.86C9.125 10.3708 9.5625 10.8967 10.0625 11.4375C10.9792 10.4375 11.7396 9.41167 12.3438 8.36C12.9479 7.30834 13.4583 6.18834 13.875 5H1.25C0.895837 5 0.598754 4.88 0.358754 4.64C0.118754 4.4 -0.000829008 4.10334 4.32526e-06 3.75C4.32526e-06 3.39584 0.120004 3.09875 0.360004 2.85875C0.600004 2.61875 0.896671 2.49917 1.25 2.5H8.75V1.25C8.75 0.895837 8.87 0.598754 9.11 0.358754C9.35 0.118754 9.64667 -0.000829008 10 4.32526e-06C10.3542 4.32526e-06 10.6513 0.120004 10.8913 0.360004C11.1313 0.600004 11.2508 0.896671 11.25 1.25V2.5H18.75C19.1042 2.5 19.4012 2.62 19.6412 2.86C19.8812 3.1 20.0008 3.39667 20 3.75C20 4.10417 19.88 4.40125 19.64 4.64125C19.4 4.88125 19.1033 5.00084 18.75 5H16.375C15.9375 6.47917 15.3438 7.91667 14.5938 9.3125C13.8438 10.7083 12.9167 12.0208 11.8125 13.25L14.8125 16.3125L13.875 18.875L10 15L4.625 20.375C4.39584 20.6042 4.10417 20.7188 3.75 20.7188C3.39584 20.7188 3.10417 20.6042 2.875 20.375C2.64584 20.1458 2.53125 19.8542 2.53125 19.5C2.53125 19.1458 2.64584 18.8542 2.875 18.625L8.3125 13.1875C7.75 12.5417 7.22917 11.8904 6.75 11.2338C6.27084 10.5771 5.84375 9.885 5.46875 9.1575C5.23959 8.71917 5.22917 8.33333 5.4375 8C5.64584 7.66667 6.01042 7.5 6.53125 7.5C6.73959 7.5 6.95834 7.56792 7.1875 7.70375C7.41667 7.83959 7.58334 8.00084 7.6875 8.1875Z" fill="#F4FA1A"/>
</svg>
