<svg width="27" height="32" viewBox="0 0 27 32" fill="none" xmlns="http://www.w3.org/2000/svg">
<path fill-rule="evenodd" clip-rule="evenodd" d="M6.91724 11.6757C6.91724 9.95538 7.60063 8.30552 8.81709 7.08906C10.0335 5.87261 11.6834 5.18921 13.4037 5.18921C15.1241 5.18921 16.7739 5.87261 17.9904 7.08906C19.2068 8.30552 19.8902 9.95538 19.8902 11.6757C19.8902 13.396 19.2068 15.0459 17.9904 16.2624C16.7739 17.4788 15.1241 18.1622 13.4037 18.1622C11.6834 18.1622 10.0335 17.4788 8.81709 16.2624C7.60063 15.0459 6.91724 13.396 6.91724 11.6757ZM13.4037 7.78381C12.3715 7.78381 11.3816 8.19385 10.6517 8.92372C9.92187 9.65359 9.51184 10.6435 9.51184 11.6757C9.51184 12.7079 9.92187 13.6978 10.6517 14.4277C11.3816 15.1576 12.3715 15.5676 13.4037 15.5676C14.4359 15.5676 15.4259 15.1576 16.1557 14.4277C16.8856 13.6978 17.2956 12.7079 17.2956 11.6757C17.2956 10.6435 16.8856 9.65359 16.1557 8.92372C15.4259 8.19385 14.4359 7.78381 13.4037 7.78381Z" fill="#F4FA1A"/>
<path fill-rule="evenodd" clip-rule="evenodd" d="M2.08451 10.1656C2.31289 7.39495 3.57492 4.81147 5.61999 2.92823C7.66506 1.04499 10.3436 -0.000278586 13.1237 5.56948e-08H13.6841C16.4642 -0.000278586 19.1427 1.04499 21.1878 2.92823C23.2329 4.81147 24.4949 7.39495 24.7233 10.1656C24.9771 13.2451 24.0258 16.3029 22.0699 18.695L15.8515 26.2989C15.5549 26.6615 15.1815 26.9536 14.7582 27.1543C14.3349 27.3549 13.8723 27.459 13.4039 27.459C12.9355 27.459 12.4729 27.3549 12.0496 27.1543C11.6263 26.9536 11.2529 26.6615 10.9563 26.2989L4.73792 18.695C2.78239 16.3034 1.83116 13.2463 2.08451 10.1674V10.1656ZM13.1237 2.5946C10.9949 2.59434 8.94388 3.39467 7.37788 4.83666C5.81188 6.27865 4.84544 8.25683 4.67046 10.3784C4.4714 12.7883 5.21555 15.1814 6.74614 17.0534L12.9645 24.6573C13.1911 24.9341 13.6166 24.9341 13.8432 24.6573L20.0616 17.0534C21.5922 15.1814 22.3364 12.7883 22.1373 10.3784C21.9623 8.25683 20.9959 6.27865 19.4299 4.83666C17.8639 3.39467 15.8129 2.59434 13.6841 2.5946H13.1237Z" fill="#F4FA1A"/>
<path d="M5.91392 24.3633C6.0002 24.2102 6.05446 24.0411 6.07341 23.8664C6.09237 23.6917 6.07561 23.5149 6.02417 23.3468C5.97273 23.1787 5.88768 23.0229 5.77416 22.8887C5.66065 22.7545 5.52106 22.6448 5.36385 22.5662C5.20664 22.4876 5.0351 22.4417 4.85963 22.4314C4.68417 22.4211 4.50845 22.4466 4.34313 22.5063C4.17781 22.566 4.02634 22.6586 3.89792 22.7786C3.7695 22.8987 3.66681 23.0435 3.59607 23.2044L0.136606 30.1233C0.03793 30.321 -0.00863729 30.5406 0.00131812 30.7613C0.0112735 30.982 0.0774221 31.1964 0.193493 31.3844C0.309565 31.5724 0.471714 31.7276 0.664573 31.8353C0.857432 31.9431 1.07461 31.9998 1.29553 32.0001H25.5118C25.7327 31.9998 25.9499 31.9431 26.1427 31.8353C26.3356 31.7276 26.4978 31.5724 26.6138 31.3844C26.7299 31.1964 26.796 30.982 26.806 30.7613C26.816 30.5406 26.7694 30.321 26.6707 30.1233L23.2113 23.2044C23.1405 23.0435 23.0378 22.8987 22.9094 22.7786C22.781 22.6586 22.6295 22.566 22.4642 22.5063C22.2989 22.4466 22.1231 22.4211 21.9477 22.4314C21.7722 22.4417 21.6007 22.4876 21.4435 22.5662C21.2863 22.6448 21.1467 22.7545 21.0332 22.8887C20.9196 23.0229 20.8346 23.1787 20.7831 23.3468C20.7317 23.5149 20.715 23.6917 20.7339 23.8664C20.7529 24.0411 20.8071 24.2102 20.8934 24.3633L23.4136 29.4055H3.39369L5.91392 24.3633Z" fill="#F4FA1A"/>
</svg>
