<svg width="32" height="32" viewBox="0 0 32 32" fill="none" xmlns="http://www.w3.org/2000/svg">
<path d="M22 12C22 13.5913 21.3679 15.1174 20.2426 16.2426C19.1174 17.3679 17.5913 18 16 18C14.4087 18 12.8826 17.3679 11.7574 16.2426C10.6321 15.1174 10 13.5913 10 12C10 10.4087 10.6321 8.88258 11.7574 7.75736C12.8826 6.63214 14.4087 6 16 6C17.5913 6 19.1174 6.63214 20.2426 7.75736C21.3679 8.88258 22 10.4087 22 12Z" fill="#FBBF24"/>
<path fill-rule="evenodd" clip-rule="evenodd" d="M0 16C0 11.7565 1.68571 7.68687 4.68629 4.68629C7.68687 1.68571 11.7565 0 16 0C20.2435 0 24.3131 1.68571 27.3137 4.68629C30.3143 7.68687 32 11.7565 32 16C32 20.2435 30.3143 24.3131 27.3137 27.3137C24.3131 30.3143 20.2435 32 16 32C11.7565 32 7.68687 30.3143 4.68629 27.3137C1.68571 24.3131 0 20.2435 0 16ZM16 2C13.3636 2.00014 10.7807 2.74473 8.54881 4.14806C6.31688 5.55139 4.52657 7.55642 3.38393 9.93239C2.24129 12.3084 1.79277 14.9587 2.09 17.5783C2.38722 20.198 3.41811 22.6804 5.064 24.74C6.484 22.452 9.61 20 16 20C22.39 20 25.514 22.45 26.936 24.74C28.5819 22.6804 29.6128 20.198 29.91 17.5783C30.2072 14.9587 29.7587 12.3084 28.6161 9.93239C27.4734 7.55642 25.6831 5.55139 23.4512 4.14806C21.2193 2.74473 18.6364 2.00014 16 2Z" fill="#FBBF24"/>
</svg>
