<svg width="30" height="30" viewBox="0 0 30 30" fill="none" xmlns="http://www.w3.org/2000/svg">
<path d="M12.1375 7.86248C12.0213 7.74532 11.883 7.65233 11.7307 7.58887C11.5784 7.52541 11.415 7.49274 11.25 7.49274C11.085 7.49274 10.9216 7.52541 10.7693 7.58887C10.617 7.65233 10.4787 7.74532 10.3625 7.86248L4.1125 14.1125C3.99534 14.2287 3.90235 14.3669 3.83889 14.5193C3.77542 14.6716 3.74275 14.835 3.74275 15C3.74275 15.165 3.77542 15.3284 3.83889 15.4807C3.90235 15.633 3.99534 15.7713 4.1125 15.8875L10.3625 22.1375C10.4787 22.2546 10.617 22.3476 10.7693 22.4111C10.9216 22.4746 11.085 22.5072 11.25 22.5072C11.415 22.5072 11.5784 22.4746 11.7307 22.4111C11.883 22.3476 12.0213 22.2546 12.1375 22.1375C12.2547 22.0213 12.3477 21.883 12.4111 21.7307C12.4746 21.5784 12.5072 21.415 12.5072 21.25C12.5072 21.085 12.4746 20.9216 12.4111 20.7693C12.3477 20.6169 12.2547 20.4787 12.1375 20.3625L6.7625 15L12.1375 9.63748C12.2547 9.52128 12.3477 9.38303 12.4111 9.23071C12.4746 9.07838 12.5072 8.915 12.5072 8.74998C12.5072 8.58497 12.4746 8.42159 12.4111 8.26926C12.3477 8.11694 12.2547 7.97869 12.1375 7.86248ZM25.8875 14.1125L19.6375 7.86248C19.521 7.74594 19.3826 7.65349 19.2303 7.59041C19.078 7.52733 18.9148 7.49487 18.75 7.49487C18.4171 7.49487 18.0979 7.62711 17.8625 7.86248C17.746 7.97903 17.6535 8.1174 17.5904 8.26967C17.5273 8.42195 17.4949 8.58516 17.4949 8.74998C17.4949 9.08286 17.6271 9.40211 17.8625 9.63748L23.2375 15L17.8625 20.3625C17.7453 20.4787 17.6523 20.6169 17.5889 20.7693C17.5254 20.9216 17.4928 21.085 17.4928 21.25C17.4928 21.415 17.5254 21.5784 17.5889 21.7307C17.6523 21.883 17.7453 22.0213 17.8625 22.1375C17.9787 22.2546 18.117 22.3476 18.2693 22.4111C18.4216 22.4746 18.585 22.5072 18.75 22.5072C18.915 22.5072 19.0784 22.4746 19.2307 22.4111C19.383 22.3476 19.5213 22.2546 19.6375 22.1375L25.8875 15.8875C26.0047 15.7713 26.0977 15.633 26.1611 15.4807C26.2246 15.3284 26.2572 15.165 26.2572 15C26.2572 14.835 26.2246 14.6716 26.1611 14.5193C26.0977 14.3669 26.0047 14.2287 25.8875 14.1125Z" fill="#FBBF24"/>
</svg>
