<svg width="21" height="20" viewBox="0 0 21 20" fill="none" xmlns="http://www.w3.org/2000/svg">
<path d="M1.42012 10.2878C1.13868 10.0261 0.98059 9.67146 0.98059 9.30167C0.98059 8.93188 1.13868 8.57721 1.42012 8.31556L9.93664 0.4081C10.2184 0.14678 10.6004 0 10.9987 0C11.397 0 11.779 0.14678 12.0608 0.4081L20.5773 8.31556C20.8426 8.58025 20.9871 8.93014 20.9804 9.29168C20.9736 9.65322 20.8162 9.99826 20.5412 10.2543C20.2655 10.5096 19.8938 10.6558 19.5045 10.662C19.1151 10.6683 18.7382 10.5341 18.4532 10.2878L12.5016 4.76186L12.5016 18.6046C12.5016 18.9747 12.3433 19.3296 12.0614 19.5913C11.7796 19.853 11.3973 20 10.9987 20C10.6001 20 10.2178 19.853 9.93598 19.5913C9.65413 19.3296 9.49578 18.9747 9.49578 18.6046L9.49578 4.76186L3.54424 10.2878C3.26244 10.5491 2.88046 10.6959 2.48218 10.6959C2.08391 10.6959 1.70192 10.5491 1.42012 10.2878Z" fill="black"/>
</svg>
