<svg width="23" height="11" viewBox="0 0 23 11" fill="none" xmlns="http://www.w3.org/2000/svg">
<path d="M13.7335 10.704C13.4382 10.5067 13.2964 10.2683 13.3082 9.98879C13.3201 9.70927 13.4741 9.47085 13.7705 9.27354L17.9422 6.48655H1.47673C1.05832 6.48655 0.707356 6.39184 0.423825 6.20242C0.140294 6.013 -0.000979373 5.77886 5.10976e-06 5.5C5.10976e-06 5.22048 0.141771 4.98601 0.425302 4.79659C0.708833 4.60717 1.05931 4.51279 1.47673 4.51345H17.9422L13.7335 1.70179C13.4382 1.50448 13.2905 1.27001 13.2905 0.998385C13.2905 0.726756 13.4382 0.492616 13.7335 0.295964C14.0289 0.0986544 14.3798 0 14.7864 0C15.193 0 15.5435 0.0986544 15.8379 0.295964L22.5939 4.80942C22.7415 4.90807 22.8464 5.01495 22.9084 5.13004C22.9704 5.24514 23.001 5.36846 23 5.5C23 5.63154 22.969 5.75486 22.9069 5.86995C22.8449 5.98505 22.7406 6.09193 22.5939 6.19058L15.8009 10.7287C15.5302 10.9096 15.192 11 14.7864 11C14.3808 11 14.0299 10.9013 13.7335 10.704Z" fill="black"/>
</svg>
