<svg width="32" height="32" viewBox="0 0 32 32" fill="none" xmlns="http://www.w3.org/2000/svg">
<path d="M0 32L2.26868 23.7906C0.874708 21.3823 0.142664 18.6509 0.146244 15.8714C0.1301 7.11279 7.27517 0 16.0565 0C20.3184 0 24.3202 1.6449 27.3334 4.64544C28.8186 6.11625 29.9958 7.86586 30.7968 9.79286C31.5979 11.7199 32.0068 13.786 31.9999 15.8714C31.9999 24.6131 24.8548 31.7258 16.0726 31.7258C13.3994 31.7258 10.7907 31.0641 8.45747 29.7907L0 32ZM8.83067 26.9358L9.31689 27.226C11.3577 28.4281 13.6851 29.0631 16.0565 29.0647C23.3478 29.0647 29.2944 23.1459 29.2944 15.8866C29.2944 12.3708 27.9174 9.04886 25.4218 6.56544C24.1946 5.33685 22.7352 4.36218 21.1279 3.69762C19.5205 3.03305 17.7969 2.69172 16.0565 2.69329C8.749 2.69424 2.80428 8.61306 2.80428 15.8724C2.80428 18.3558 3.50131 20.792 4.82985 22.8887L5.13754 23.3888L3.79285 28.2593L8.83162 26.9367L8.83067 26.9358Z" fill="#FBBF24"/>
<path fill-rule="evenodd" clip-rule="evenodd" d="M12.087 9.22659C11.7954 8.56484 11.4716 8.54877 11.1962 8.54877C10.9531 8.5327 10.6929 8.5327 10.4175 8.5327C10.1592 8.5327 9.72143 8.62913 9.34918 9.03279C8.97597 9.43551 7.95606 10.3875 7.95606 12.3387C7.95606 14.2908 9.38146 16.1777 9.57614 16.4358C9.76986 16.6939 12.3301 20.8222 16.3812 22.4199C19.7505 23.7424 20.4314 23.4843 21.1608 23.403C21.8891 23.3227 23.5102 22.452 23.8501 21.5161C24.174 20.5972 24.174 19.7908 24.0771 19.6292C23.9802 19.4685 23.7039 19.3711 23.3155 19.1612C22.91 18.9684 20.9661 18.0004 20.5938 17.8708C20.2206 17.7423 19.9614 17.678 19.7021 18.0646C19.4429 18.4683 18.6813 19.355 18.4391 19.6131C18.2112 19.8712 17.969 19.9033 17.5797 19.7095C17.1751 19.5167 15.895 19.097 14.3718 17.7423C13.1886 16.6929 12.3947 15.3874 12.1516 15.0008C11.9255 14.5971 12.1193 14.3872 12.3301 14.1934C12.5086 14.0167 12.7356 13.7264 12.9303 13.5005C13.124 13.2736 13.1886 13.0968 13.3348 12.8388C13.464 12.5807 13.3994 12.3387 13.3025 12.1458C13.2047 11.9681 12.444 10.016 12.087 9.22564V9.22659Z" fill="#FBBF24"/>
</svg>
