<svg width="160" height="45" viewBox="0 0 160 45" fill="none" xmlns="http://www.w3.org/2000/svg">
<path d="M11 0H81L79 6H9L11 0Z" fill="#717171"/>
<path d="M27.0634 16.28C26.7994 17.768 26.1874 19.004 25.2274 19.988C24.2674 20.972 23.1154 21.656 21.7714 22.04C22.9714 22.304 23.9194 22.892 24.6154 23.804C25.3114 24.716 25.6594 25.784 25.6594 27.008C25.6594 27.392 25.6234 27.764 25.5514 28.124C25.1914 30.236 24.1594 31.916 22.4554 33.164C20.7514 34.388 18.5794 35 15.9394 35H4.16741L8.63141 9.728H20.0074C22.2874 9.728 24.0514 10.196 25.2994 11.132C26.5474 12.068 27.1714 13.364 27.1714 15.02C27.1714 15.428 27.1354 15.848 27.0634 16.28ZM16.9834 19.988C18.0154 19.988 18.8434 19.76 19.4674 19.304C20.0914 18.848 20.4754 18.188 20.6194 17.324C20.6434 17.18 20.6554 16.988 20.6554 16.748C20.6554 16.052 20.4274 15.524 19.9714 15.164C19.5154 14.78 18.8434 14.588 17.9554 14.588H13.9234L12.9874 19.988H16.9834ZM19.4314 27.296C19.4794 27.008 19.5034 26.792 19.5034 26.648C19.5034 25.952 19.2514 25.412 18.7474 25.028C18.2434 24.62 17.5474 24.416 16.6594 24.416H12.1954L11.1874 30.104H15.7234C16.7794 30.104 17.6194 29.864 18.2434 29.384C18.8674 28.904 19.2634 28.208 19.4314 27.296ZM35.6379 9.728L31.1739 35H25.0179L29.4819 9.728H35.6379ZM47.0471 22.112L54.9311 35H47.4071L40.8911 23.84L38.9111 35H32.7551L37.2191 9.728H43.3751L41.4311 20.816L51.8351 9.728H59.0351L47.0471 22.112ZM64.7326 14.588L63.8326 19.844H72.0766L71.2486 24.488H63.0046L61.9966 30.14H71.3206L70.4566 35H54.9766L59.4406 9.728H74.9206L74.0566 14.588H64.7326ZM81.6172 35.252C78.8812 35.252 76.6492 34.664 74.9212 33.488C73.2172 32.288 72.3652 30.596 72.3652 28.412C72.3652 28.196 72.3892 27.872 72.4372 27.44H78.8452C78.7732 28.352 78.9892 29.072 79.4932 29.6C79.9972 30.128 80.7652 30.392 81.7972 30.392C82.7332 30.392 83.4652 30.188 83.9932 29.78C84.5452 29.372 84.8212 28.796 84.8212 28.052C84.8212 27.284 84.4732 26.66 83.7772 26.18C83.1052 25.7 82.0492 25.16 80.6092 24.56C79.2172 23.984 78.0772 23.444 77.1892 22.94C76.3252 22.412 75.5692 21.704 74.9212 20.816C74.2732 19.928 73.9492 18.812 73.9492 17.468C73.9252 15.812 74.3332 14.372 75.1732 13.148C76.0132 11.924 77.1772 10.988 78.6652 10.34C80.1532 9.692 81.8572 9.368 83.7772 9.368C85.5052 9.368 87.0412 9.644 88.3852 10.196C89.7292 10.724 90.7732 11.504 91.5172 12.536C92.2612 13.544 92.6332 14.744 92.6332 16.136C92.6332 16.496 92.6212 16.76 92.5972 16.928H86.0452C86.0692 16.832 86.0812 16.688 86.0812 16.496C86.0812 15.824 85.8412 15.284 85.3612 14.876C84.9052 14.444 84.2692 14.228 83.4532 14.228C82.5892 14.228 81.8812 14.444 81.3292 14.876C80.8012 15.284 80.5372 15.848 80.5372 16.568C80.5372 17.288 80.8732 17.9 81.5452 18.404C82.2172 18.884 83.2612 19.448 84.6772 20.096C86.0932 20.744 87.2452 21.344 88.1332 21.896C89.0452 22.448 89.8252 23.192 90.4732 24.128C91.1212 25.04 91.4452 26.168 91.4452 27.512C91.4452 29 91.0492 30.332 90.2572 31.508C89.4652 32.684 88.3252 33.608 86.8372 34.28C85.3492 34.928 83.6092 35.252 81.6172 35.252ZM113.732 9.728L112.904 14.588H106.172L102.572 35H96.4157L100.016 14.588H93.3197L94.1837 9.728H113.732ZM126.001 30.536H116.569L114.265 35H107.821L121.429 9.728H128.557L133.237 35H126.721L126.001 30.536ZM125.281 25.856L123.805 16.496L118.981 25.856H125.281ZM147.936 9.728C150.552 9.728 152.544 10.328 153.912 11.528C155.28 12.704 155.964 14.24 155.964 16.136C155.964 16.688 155.916 17.204 155.82 17.684C155.532 19.364 154.8 20.864 153.624 22.184C152.448 23.504 150.876 24.44 148.908 24.992L152.976 35H146.028L142.464 25.46H140.988L139.296 35H133.14L137.604 9.728H147.936ZM149.52 17.936C149.568 17.552 149.592 17.3 149.592 17.18C149.592 16.412 149.34 15.824 148.836 15.416C148.356 14.984 147.636 14.768 146.676 14.768H142.86L141.744 21.104H145.56C146.688 21.104 147.576 20.828 148.224 20.276C148.896 19.724 149.328 18.944 149.52 17.936Z" fill="#717171"/>
<path d="M81 39H151L149 45H79L81 39Z" fill="#717171"/>
</svg>
