<svg width="160" height="45" viewBox="0 0 160 45" fill="none" xmlns="http://www.w3.org/2000/svg">
<path d="M0.710938 33V30.7783L2.67871 30.3975V17.1309L0.710938 16.75V14.5156H15.0566V19.5049H12.2129L12.0479 17.3721H6.38574V22.0186H12.6445V24.875H6.38574V30.1562H12.3525L12.5176 27.9473H15.3359V33H0.710938ZM15.2364 33V30.7783L17.2042 30.3975V17.1309L15.2364 16.75V14.5156H17.2042H22.6886L27.7286 27.4014H27.8048L32.6798 14.5156H40.1446V16.75L38.1641 17.1309V30.3975L40.1446 30.7783V33H32.4893V30.7783L34.5587 30.3975V26.8555L34.6221 18.5146L34.546 18.502L29.0235 32.7461H26.2179L20.5684 18.6162L20.4923 18.6289L20.7081 26.4746V30.3975L22.8917 30.7783V33H15.2364ZM43.678 33V30.7783L45.6457 30.3975V17.1309L43.678 16.75V14.5156H45.6457H51.8918C54.067 14.5156 55.7639 14.9388 56.9827 15.7852C58.2014 16.6315 58.8108 17.8968 58.8108 19.5811C58.8108 20.4359 58.5823 21.2018 58.1252 21.8789C57.6767 22.5475 57.0207 23.0511 56.1575 23.3896C56.8938 23.5505 57.5074 23.834 57.9983 24.2402C58.4976 24.6465 58.87 25.1416 59.1155 25.7256C59.3609 26.3011 59.4836 26.9316 59.4836 27.6172C59.4836 29.3861 58.8997 30.7275 57.7317 31.6416C56.5637 32.5472 54.9091 33 52.7678 33H43.678ZM49.3528 30.1562H52.7678C53.7496 30.1562 54.4986 29.9447 55.0149 29.5215C55.5312 29.0898 55.7893 28.4551 55.7893 27.6172C55.7893 26.7116 55.5692 26.0218 55.1291 25.5479C54.689 25.0654 53.995 24.8242 53.0471 24.8242H49.3528V30.1562ZM49.3528 22.2598H52.0188C53.009 22.2598 53.7707 22.0566 54.3039 21.6504C54.8372 21.2441 55.1038 20.6517 55.1038 19.873C55.1038 19.0182 54.8329 18.3877 54.2913 17.9814C53.758 17.5752 52.9582 17.3721 51.8918 17.3721H49.3528V22.2598ZM58.6605 33V30.7783L60.6282 30.3975V17.1309L58.6605 16.75V14.5156H67.4202C68.8421 14.5156 70.0609 14.7357 71.0765 15.1758C72.0921 15.6159 72.8708 16.2464 73.4124 17.0674C73.9626 17.8883 74.2376 18.8743 74.2376 20.0254C74.2376 21.1087 73.9668 22.0778 73.4251 22.9326C72.8835 23.7874 72.1302 24.4603 71.1654 24.9512C70.2005 25.4421 69.0876 25.6917 67.8265 25.7002H64.3353V30.3975L66.3157 30.7783V33H58.6605ZM70.556 33L67.4456 25.0146L70.7845 24.1895L73.4759 30.4102L75.0501 30.7783V33H70.556ZM64.3353 22.8438H67.3568C68.4232 22.8438 69.2187 22.6195 69.7435 22.1709C70.2767 21.7139 70.5433 21.0537 70.5433 20.1904C70.5433 19.3356 70.2809 18.6543 69.7562 18.1465C69.2314 17.6302 68.4528 17.3721 67.4202 17.3721H64.3353V22.8438ZM74.4555 33V30.7783L76.4232 30.3975V17.1309L74.4555 16.75V14.5156H88.8012V19.5049H85.9574L85.7924 17.3721H80.1303V22.0186H86.3891V24.875H80.1303V30.1562H86.0971L86.2621 27.9473H89.0805V33H74.4555ZM96.2934 33L90.352 16.9531L88.7016 16.75V14.5156H96.0522V16.75L94.3891 17.0039L98.02 27.9092L98.2993 28.9248H98.3755L98.6421 27.9346L102.273 17.0039L100.331 16.75V14.5156H107.338V16.75L105.663 16.9531L100.089 33H96.2934ZM106.401 33V30.7783L108.369 30.3975V17.1309L106.401 16.75V14.5156H120.747V19.5049H117.903L117.738 17.3721H112.076V22.0186H118.335V24.875H112.076V30.1562H118.043L118.208 27.9473H121.026V33H106.401Z" fill="#717171"/>
<rect x="127" y="37" width="8" height="8" fill="#717171"/>
<rect x="152" y="37" width="8" height="8" fill="#717171"/>
<rect x="139" y="37" width="8" height="8" fill="#717171"/>
<rect y="37" width="122" height="8" fill="#717171"/>
</svg>
