<svg width="161" height="31" viewBox="0 0 161 31" fill="none" xmlns="http://www.w3.org/2000/svg">
<path d="M7.52465 3.14174C8.9353 4.51667 8.96037 6.27288 7.58954 7.68775C6.21872 9.10262 4.46775 9.12777 3.05711 7.75284C1.54334 6.2774 1.10111 2.63276 1.00112 1.54973C0.997595 1.51122 1.00242 1.4724 1.01526 1.43595C1.02811 1.39948 1.04868 1.36625 1.07554 1.33852C1.10241 1.31078 1.13495 1.28921 1.17092 1.27529C1.20688 1.26137 1.24543 1.25542 1.28391 1.25786C2.36598 1.32726 6.01089 1.6663 7.52465 3.14174Z" stroke="#717171" stroke-miterlimit="10"/>
<path d="M6.78376 4.16309C7.08857 4.46019 7.26325 4.86658 7.26933 5.29285C7.27541 5.71912 7.11241 6.13035 6.8162 6.43609" stroke="#717171" stroke-linecap="round" stroke-linejoin="round"/>
<path d="M7.52465 13.651C8.9353 15.026 8.96037 16.7821 7.58954 18.197C6.21872 19.6119 4.46775 19.6371 3.05711 18.2621C1.54334 16.7866 1.10111 13.142 1.00112 12.059C0.997595 12.0205 1.00242 11.9817 1.01526 11.9453C1.02811 11.9088 1.04868 11.8756 1.07554 11.8478C1.10241 11.8201 1.13495 11.7985 1.17092 11.7846C1.20688 11.7707 1.24543 11.7646 1.28391 11.7672C2.36598 11.8365 6.01089 12.1755 7.52465 13.651Z" stroke="#717171" stroke-miterlimit="10"/>
<path d="M6.78376 14.6719C7.08857 14.969 7.26325 15.3754 7.26933 15.8017C7.27541 16.2279 7.11241 16.6391 6.8162 16.9449" stroke="#717171" stroke-linecap="round" stroke-linejoin="round"/>
<path d="M7.52465 24.1603C8.9353 25.5353 8.96037 27.2914 7.58954 28.7063C6.21872 30.1211 4.46775 30.1463 3.05711 28.7714C1.54334 27.2959 1.10111 23.6513 1.00112 22.5683C0.997595 22.5297 1.00242 22.4909 1.01526 22.4545C1.02811 22.418 1.04868 22.3848 1.07554 22.3571C1.10241 22.3294 1.13495 22.3078 1.17092 22.2939C1.20688 22.2799 1.24543 22.2739 1.28391 22.2764C2.36598 22.3458 6.01089 22.6848 7.52465 24.1603Z" stroke="#717171" stroke-miterlimit="10"/>
<path d="M6.78376 25.1812C7.08857 25.4783 7.26325 25.8847 7.26933 26.3109C7.27541 26.7372 7.11241 27.1484 6.8162 27.4542" stroke="#717171" stroke-linecap="round" stroke-linejoin="round"/>
<path d="M18.5063 3.14174C19.917 4.51667 19.942 6.27288 18.5712 7.68775C17.2003 9.10262 15.4494 9.12777 14.0387 7.75284C12.525 6.2774 12.0827 2.63276 11.9827 1.54973C11.9792 1.51122 11.9841 1.4724 11.9969 1.43595C12.0098 1.39948 12.0303 1.36625 12.0572 1.33852C12.084 1.31078 12.1166 1.28921 12.1525 1.27529C12.1885 1.26137 12.2271 1.25542 12.2655 1.25786C13.3476 1.32726 16.9926 1.6663 18.5063 3.14174Z" stroke="#717171" stroke-miterlimit="10"/>
<path d="M17.7653 4.16309C18.0702 4.46019 18.2449 4.86658 18.2509 5.29285C18.257 5.71912 18.094 6.13035 17.7978 6.43609" stroke="#717171" stroke-linecap="round" stroke-linejoin="round"/>
<path d="M18.5063 13.651C19.917 15.026 19.942 16.7821 18.5712 18.197C17.2003 19.6119 15.4494 19.6371 14.0387 18.2621C12.525 16.7866 12.0827 13.142 11.9827 12.059C11.9792 12.0205 11.9841 11.9817 11.9969 11.9453C12.0098 11.9088 12.0303 11.8756 12.0572 11.8478C12.084 11.8201 12.1166 11.7985 12.1525 11.7846C12.1885 11.7707 12.2271 11.7646 12.2655 11.7672C13.3476 11.8365 16.9926 12.1755 18.5063 13.651Z" stroke="#717171" stroke-miterlimit="10"/>
<path d="M17.7653 14.6719C18.0702 14.969 18.2449 15.3754 18.2509 15.8017C18.257 16.2279 18.094 16.6391 17.7978 16.9449" stroke="#717171" stroke-linecap="round" stroke-linejoin="round"/>
<path d="M18.5063 24.1603C19.917 25.5353 19.942 27.2914 18.5712 28.7063C17.2003 30.1211 15.4494 30.1463 14.0387 28.7714C12.525 27.2959 12.0827 23.6513 11.9827 22.5683C11.9792 22.5297 11.9841 22.4909 11.9969 22.4545C12.0098 22.418 12.0303 22.3848 12.0572 22.3571C12.084 22.3294 12.1166 22.3078 12.1525 22.2939C12.1885 22.2799 12.2271 22.2739 12.2655 22.2764C13.3476 22.3458 16.9926 22.6848 18.5063 24.1603Z" stroke="#717171" stroke-miterlimit="10"/>
<path d="M17.7653 25.1812C18.0702 25.4783 18.2449 25.8847 18.2509 26.3109C18.257 26.7372 18.094 27.1484 17.7978 27.4542" stroke="#717171" stroke-linecap="round" stroke-linejoin="round"/>
<path d="M29.4879 3.14174C30.8986 4.51667 30.9236 6.27288 29.5528 7.68775C28.1819 9.10262 26.431 9.12777 25.0203 7.75284C23.5066 6.2774 23.0643 2.63276 22.9644 1.54973C22.9608 1.51122 22.9657 1.4724 22.9785 1.43595C22.9914 1.39948 23.0119 1.36625 23.0388 1.33852C23.0656 1.31078 23.0982 1.28921 23.1341 1.27529C23.1702 1.26137 23.2087 1.25542 23.2471 1.25786C24.3293 1.32726 27.9742 1.6663 29.4879 3.14174Z" stroke="#717171" stroke-miterlimit="10"/>
<path d="M28.7469 4.16309C29.0518 4.46019 29.2265 4.86658 29.2326 5.29285C29.2386 5.71912 29.0756 6.13035 28.7795 6.43609" stroke="#717171" stroke-linecap="round" stroke-linejoin="round"/>
<path d="M29.4879 13.651C30.8986 15.026 30.9236 16.7821 29.5528 18.197C28.1819 19.6119 26.431 19.6371 25.0203 18.2621C23.5066 16.7866 23.0643 13.142 22.9644 12.059C22.9608 12.0205 22.9657 11.9817 22.9785 11.9453C22.9914 11.9088 23.0119 11.8756 23.0388 11.8478C23.0656 11.8201 23.0982 11.7985 23.1341 11.7846C23.1702 11.7707 23.2087 11.7646 23.2471 11.7672C24.3293 11.8365 27.9742 12.1755 29.4879 13.651Z" stroke="#717171" stroke-miterlimit="10"/>
<path d="M28.7469 14.6719C29.0518 14.969 29.2265 15.3754 29.2326 15.8017C29.2386 16.2279 29.0756 16.6391 28.7795 16.9449" stroke="#717171" stroke-linecap="round" stroke-linejoin="round"/>
<path d="M29.4879 24.1603C30.8986 25.5353 30.9236 27.2914 29.5528 28.7063C28.1819 30.1211 26.431 30.1463 25.0203 28.7714C23.5066 27.2959 23.0643 23.6513 22.9644 22.5683C22.9608 22.5297 22.9657 22.4909 22.9785 22.4545C22.9914 22.418 23.0119 22.3848 23.0388 22.3571C23.0656 22.3294 23.0982 22.3078 23.1341 22.2939C23.1702 22.2799 23.2087 22.2739 23.2471 22.2764C24.3293 22.3458 27.9742 22.6848 29.4879 24.1603Z" stroke="#717171" stroke-miterlimit="10"/>
<path d="M28.7469 25.1812C29.0518 25.4783 29.2265 25.8847 29.2326 26.3109C29.2386 26.7372 29.0756 27.1484 28.7795 27.4542" stroke="#717171" stroke-linecap="round" stroke-linejoin="round"/>
<path d="M41.4846 7.99854C42.4656 7.99854 43.3735 8.15929 44.2081 8.48079C45.0427 8.80228 45.7601 9.26992 46.3605 9.8837C46.9607 10.4829 47.4293 11.2282 47.7661 12.1196C48.1175 13.011 48.2932 14.0267 48.2932 15.1665C48.2932 16.2771 48.1175 17.2709 47.7661 18.1477C47.4147 19.0246 46.9315 19.7698 46.3165 20.3836C45.7016 20.9974 44.9694 21.4723 44.1202 21.8085C43.2856 22.1299 42.3778 22.2907 41.3968 22.2907C40.4157 22.2907 39.5079 22.1373 38.6733 21.8304C37.8387 21.5089 37.1212 21.0486 36.5209 20.4494C35.9206 19.8356 35.4447 19.0903 35.0933 18.2135C34.7565 17.3221 34.5882 16.3064 34.5882 15.1665C34.5882 14.0559 34.7639 13.0622 35.1153 12.1854C35.4667 11.294 35.9499 10.5413 36.5649 9.92754C37.1798 9.29915 37.9046 8.8242 38.7392 8.50271C39.5884 8.16659 40.5035 7.99854 41.4846 7.99854ZM37.7728 15.1665C37.7728 15.9849 37.8679 16.701 38.0584 17.3148C38.2633 17.9139 38.5342 18.4181 38.871 18.8273C39.2077 19.2218 39.5958 19.5214 40.035 19.726C40.4889 19.9159 40.9721 20.011 41.4846 20.011C41.9824 20.011 42.451 19.9159 42.8903 19.726C43.3441 19.5214 43.7321 19.2218 44.0543 18.8273C44.3764 18.4181 44.6326 17.9139 44.823 17.3148C45.0133 16.701 45.1086 15.9849 45.1086 15.1665C45.1086 14.319 45.006 13.5883 44.8011 12.9745C44.6106 12.3607 44.3471 11.8565 44.0104 11.462C43.6736 11.0528 43.2783 10.7532 42.8244 10.5632C42.3851 10.3733 41.9092 10.2783 41.3968 10.2783C40.8843 10.2783 40.4084 10.3805 39.9692 10.5852C39.5299 10.7898 39.1492 11.0967 38.8271 11.5058C38.5049 11.9004 38.2487 12.4046 38.0584 13.0183C37.8679 13.6321 37.7728 14.3481 37.7728 15.1665ZM57.52 19.9671C58.1935 19.9671 58.7645 19.9087 59.2331 19.7918C59.7017 19.6748 60.1043 19.5141 60.4411 19.3095L61.0561 21.5016C60.7046 21.7062 60.2069 21.8888 59.5626 22.0496C58.9183 22.2104 58.135 22.2907 57.2125 22.2907C56.1729 22.2907 55.2138 22.1299 54.3353 21.8085C53.4568 21.4723 52.6954 20.9974 52.0511 20.3836C51.4216 19.7553 50.931 19.0026 50.5796 18.1258C50.2282 17.2344 50.0525 16.2333 50.0525 15.1227C50.0525 14.0413 50.2208 13.0622 50.5576 12.1854C50.909 11.3085 51.3922 10.5632 52.0072 9.94946C52.6368 9.32108 53.3983 8.83882 54.2914 8.50271C55.1845 8.16659 56.1802 7.99854 57.2784 7.99854C58.2155 7.99854 58.9842 8.08622 59.5845 8.26158C60.1995 8.43695 60.6973 8.62692 61.078 8.83151L60.3972 11.0455C60.0164 10.8409 59.5919 10.6728 59.1233 10.5413C58.6694 10.3952 58.1569 10.3221 57.5859 10.3221C56.9855 10.3221 56.4218 10.4098 55.8947 10.5852C55.3676 10.7605 54.9064 11.0455 54.511 11.4401C54.1157 11.82 53.8008 12.3169 53.5666 12.9306C53.347 13.5298 53.2372 14.2605 53.2372 15.1227C53.2372 15.9557 53.347 16.6791 53.5666 17.2928C53.7862 17.892 54.0864 18.3889 54.4671 18.7834C54.8624 19.178 55.3163 19.4775 55.8288 19.6822C56.3559 19.8721 56.9196 19.9671 57.52 19.9671ZM63.2154 8.23966H72.2203V10.5632H66.2243V13.7198H71.6493V16.0214H66.2243V19.726H72.2862V22.0496H63.2154V8.23966ZM78.2075 16.6571H81.7216L81.0847 14.8158C80.8796 14.2459 80.6893 13.6759 80.5136 13.106C80.3379 12.5215 80.1696 11.9369 80.0085 11.3524H79.9645C79.8034 11.9077 79.6277 12.4777 79.4374 13.0622C79.2471 13.6321 79.0494 14.2166 78.8444 14.8158L78.2075 16.6571ZM78.471 8.23966H81.5898L86.7073 22.0496H83.5226L82.4464 18.8711H77.5266L76.4504 22.0496H73.3097L78.471 8.23966ZM88.4602 8.23966H91.2052L95.9712 15.5173C96.2941 16.0141 96.5862 16.5037 96.8498 16.9859C97.1287 17.4536 97.3264 17.8189 97.4428 18.082H97.4867C97.3989 17.132 97.3549 16.1895 97.3549 15.2542C97.3549 14.3043 97.3549 13.3471 97.3549 12.3826V8.23966H100.144V22.0496H97.3988L92.9623 15.3419C92.7723 15.0496 92.5823 14.7501 92.3912 14.4432C92.2155 14.1217 92.0475 13.8148 91.8861 13.5225C91.7258 13.2302 91.5786 12.9671 91.4468 12.7334C91.3304 12.4849 91.2426 12.2804 91.1833 12.1196H91.1393C91.2129 13.1279 91.2491 14.0998 91.2491 15.035C91.2645 15.9557 91.2711 16.8983 91.2711 17.8628V22.0496H88.4602V8.23966ZM113.177 8.23966C114.641 8.23966 115.799 8.55386 116.647 9.18224C117.496 9.81063 117.921 10.6948 117.921 11.8346C117.921 12.2585 117.841 12.6383 117.68 12.9745C117.534 13.3106 117.336 13.6028 117.087 13.8513C116.853 14.0851 116.582 14.2824 116.274 14.4432C115.981 14.604 115.681 14.7208 115.374 14.7939C115.783 14.867 116.164 14.9912 116.516 15.1665C116.881 15.3273 117.197 15.5465 117.46 15.8242C117.738 16.1018 117.951 16.4379 118.097 16.8325C118.258 17.2125 118.339 17.6509 118.339 18.1477C118.339 18.7177 118.215 19.2438 117.965 19.726C117.716 20.1937 117.358 20.6028 116.889 20.9536C116.435 21.3043 115.879 21.5747 115.22 21.7646C114.575 21.9546 113.858 22.0496 113.067 22.0496H108.236V8.23966H113.177ZM111.244 13.7636H112.672C113.331 13.7636 113.85 13.6248 114.231 13.3471C114.627 13.0548 114.824 12.6238 114.824 12.0538C114.824 11.5423 114.641 11.1624 114.275 10.914C113.924 10.6509 113.411 10.5194 112.738 10.5194H111.244V13.7636ZM111.244 19.7698H112.672C113.419 19.7698 114.034 19.631 114.517 19.3534C115 19.061 115.242 18.5642 115.242 17.8628C115.242 17.2051 114.986 16.7375 114.473 16.4599C113.96 16.1675 113.331 16.0214 112.584 16.0214H111.244V19.7698ZM124.085 16.6571H127.599L126.962 14.8158C126.758 14.2459 126.567 13.6759 126.391 13.106C126.216 12.5215 126.048 11.9369 125.886 11.3524H125.842C125.682 11.9077 125.506 12.4777 125.315 13.0622C125.125 13.6321 124.928 14.2166 124.722 14.8158L124.085 16.6571ZM124.349 8.23966H127.468L132.585 22.0496H129.4L128.324 18.8711H123.404L122.328 22.0496H119.187L124.349 8.23966ZM134.339 8.23966H137.084L141.85 15.5173C142.172 16.0141 142.465 16.5037 142.729 16.9859C143.007 17.4536 143.204 17.8189 143.322 18.082H143.366C143.278 17.132 143.234 16.1895 143.234 15.2542C143.234 14.3043 143.234 13.3471 143.234 12.3826V8.23966H146.023V22.0496H143.278L138.841 15.3419C138.65 15.0496 138.46 14.7501 138.27 14.4432C138.095 14.1217 137.925 13.8148 137.765 13.5225C137.604 13.2302 137.458 12.9671 137.326 12.7334C137.208 12.4849 137.12 12.2804 137.062 12.1196H137.018C137.091 13.1279 137.128 14.0998 137.128 15.035C137.142 15.9557 137.15 16.8983 137.15 17.8628V22.0496H134.339V8.23966ZM149.052 22.0496V8.23966H152.061V14.0486L156.827 8.23966H160.561L155.399 14.2678L161 22.0496H157.288L153.203 16.153L152.061 17.3586V22.0496H149.052Z" fill="#717171"/>
</svg>
