<svg width="168" height="46" viewBox="0 0 168 46" fill="none" xmlns="http://www.w3.org/2000/svg">
<path d="M11.1118 31.899C8.77044 31.899 6.99982 31.2344 5.79989 29.9053C4.59996 28.5466 4 26.612 4 24.1014V22.3293H8.56558V24.4559C8.56558 26.4643 9.39967 27.4685 11.0679 27.4685C11.8873 27.4685 12.5019 27.2323 12.9117 26.7597C13.3506 26.2576 13.5701 25.4601 13.5701 24.3673C13.5701 23.0677 13.2775 21.9305 12.6922 20.9558C12.1068 19.9516 11.024 18.7554 9.44357 17.3672C7.45345 15.595 6.06329 14.0001 5.27309 12.5824C4.4829 11.1351 4.0878 9.51061 4.0878 7.70891C4.0878 5.25742 4.7024 3.36711 5.93159 2.03799C7.16078 0.67933 8.94604 0 11.2874 0C13.5994 0 15.3408 0.67933 16.5114 2.03799C17.7114 3.36711 18.3113 5.28696 18.3113 7.79752V9.08234H13.7457V7.48739C13.7457 6.4241 13.5409 5.65616 13.1312 5.18358C12.7214 4.68147 12.1215 4.43041 11.3313 4.43041C9.7216 4.43041 8.91677 5.41987 8.91677 7.39879C8.91677 8.52116 9.20944 9.56969 9.79477 10.5444C10.4094 11.5191 11.5069 12.7005 13.0873 14.0887C15.1066 15.8609 16.4968 17.4706 17.2577 18.9179C18.0187 20.3651 18.3991 22.0634 18.3991 24.0128C18.3991 26.5529 17.7699 28.5023 16.5114 29.861C15.2822 31.2196 13.4823 31.899 11.1118 31.899ZM24.7707 0.443041H31.3118L36.3164 31.4559H31.4874L30.6094 25.2976V25.3862H25.1219L24.2439 31.4559H19.7662L24.7707 0.443041ZM30.0387 21.1774L27.8876 5.84814H27.7998L25.6926 21.1774H30.0387ZM38.6592 0.443041H43.4881V31.4559H38.6592V0.443041ZM47.1047 0.443041H53.1629L57.8602 19.0065H57.948V0.443041H62.2502V31.4559H57.2895L51.4947 8.81652H51.4069V31.4559H47.1047V0.443041ZM69.6148 4.87345H64.5663V0.443041H79.4922V4.87345H74.4438V31.4559H69.6148V4.87345ZM81.8302 0.443041H88.9858C91.4735 0.443041 93.288 1.03376 94.4294 2.21521C95.5708 3.36711 96.1415 5.15404 96.1415 7.576V9.48108C96.1415 12.7005 95.0879 14.7385 92.9807 15.595V15.6837C94.1514 16.0381 94.9708 16.7617 95.4391 17.8546C95.9366 18.9474 96.1854 20.4094 96.1854 22.2407V27.6901C96.1854 28.5761 96.2147 29.2998 96.2732 29.861C96.3317 30.3926 96.4781 30.9243 96.7122 31.4559H91.7954C91.6198 30.9538 91.5028 30.4812 91.4442 30.0382C91.3857 29.5951 91.3564 28.7977 91.3564 27.6458V21.9748C91.3564 20.5571 91.1223 19.5676 90.654 19.0065C90.215 18.4453 89.4395 18.1647 88.3273 18.1647H86.6592V31.4559H81.8302V0.443041ZM88.4151 13.7343C89.3809 13.7343 90.098 13.4832 90.5662 12.9811C91.0638 12.479 91.3125 11.6372 91.3125 10.4558V8.06335C91.3125 6.94098 91.1077 6.12873 90.6979 5.62662C90.3175 5.12451 89.7029 4.87345 88.8541 4.87345H86.6592V13.7343H88.4151ZM106.516 31.899C104.145 31.899 102.331 31.2196 101.072 29.861C99.8139 28.5023 99.1846 26.5825 99.1846 24.1014V7.79752C99.1846 5.31649 99.8139 3.39665 101.072 2.03799C102.331 0.67933 104.145 0 106.516 0C108.886 0 110.701 0.67933 111.959 2.03799C113.218 3.39665 113.847 5.31649 113.847 7.79752V24.1014C113.847 26.5825 113.218 28.5023 111.959 29.861C110.701 31.2196 108.886 31.899 106.516 31.899ZM106.516 27.4685C108.184 27.4685 109.018 26.4495 109.018 24.4116V7.48739C109.018 5.44941 108.184 4.43041 106.516 4.43041C104.848 4.43041 104.014 5.44941 104.014 7.48739V24.4116C104.014 26.4495 104.848 27.4685 106.516 27.4685ZM123.917 31.899C121.605 31.899 119.835 31.2344 118.605 29.9053C117.406 28.5761 116.806 26.7006 116.806 24.2786V7.62031C116.806 5.19835 117.406 3.32281 118.605 1.99369C119.835 0.664562 121.605 0 123.917 0C126.229 0 127.985 0.664562 129.185 1.99369C130.414 3.32281 131.029 5.19835 131.029 7.62031V10.8988H126.464V7.31018C126.464 5.39033 125.659 4.43041 124.049 4.43041C122.439 4.43041 121.635 5.39033 121.635 7.31018V24.6331C121.635 26.5234 122.439 27.4685 124.049 27.4685C125.659 27.4685 126.464 26.5234 126.464 24.6331V19.8925H131.029V24.2786C131.029 26.7006 130.414 28.5761 129.185 29.9053C127.985 31.2344 126.229 31.899 123.917 31.899ZM133.918 0.443041H138.747V13.5128L144.893 0.443041H149.722L143.971 11.8292L149.81 31.4559H144.762L140.679 17.633L138.747 21.5761V31.4559H133.918V0.443041Z" fill="#717171"/>
<path d="M164 24.0718H158.147V29.979H164V24.0718Z" fill="#717171"/>
<g filter="url(#filter0_d_1412_57)">
<path d="M164 32.9326H4.49753V37.363H164V32.9326Z" fill="#717171"/>
</g>
<defs>
<filter id="filter0_d_1412_57" x="0.497532" y="32.9326" width="167.502" height="12.4302" filterUnits="userSpaceOnUse" color-interpolation-filters="sRGB">
<feFlood flood-opacity="0" result="BackgroundImageFix"/>
<feColorMatrix in="SourceAlpha" type="matrix" values="0 0 0 0 0 0 0 0 0 0 0 0 0 0 0 0 0 0 127 0" result="hardAlpha"/>
<feOffset dy="4"/>
<feGaussianBlur stdDeviation="2"/>
<feComposite in2="hardAlpha" operator="out"/>
<feColorMatrix type="matrix" values="0 0 0 0 0 0 0 0 0 0 0 0 0 0 0 0 0 0 0.25 0"/>
<feBlend mode="normal" in2="BackgroundImageFix" result="effect1_dropShadow_1412_57"/>
<feBlend mode="normal" in="SourceGraphic" in2="effect1_dropShadow_1412_57" result="shape"/>
</filter>
</defs>
</svg>
