<svg width="22" height="26" viewBox="0 0 22 26" fill="none" xmlns="http://www.w3.org/2000/svg">
<path d="M15.7986 14.6647C15.7986 14.9425 15.688 15.2089 15.4912 15.4053C15.2943 15.6018 15.0274 15.7121 14.749 15.7121H6.35225C6.07388 15.7121 5.80691 15.6018 5.61007 15.4053C5.41324 15.2089 5.30265 14.9425 5.30265 14.6647C5.30265 14.3869 5.41324 14.1204 5.61007 13.924C5.80691 13.7275 6.07388 13.6172 6.35225 13.6172H14.749C15.0274 13.6172 15.2943 13.7275 15.4912 13.924C15.688 14.1204 15.7986 14.3869 15.7986 14.6647ZM11.6002 17.8071H6.35225C6.07388 17.8071 5.80691 17.9174 5.61007 18.1139C5.41324 18.3103 5.30265 18.5768 5.30265 18.8546C5.30265 19.1324 5.41324 19.3988 5.61007 19.5952C5.80691 19.7917 6.07388 19.902 6.35225 19.902H11.6002C11.8786 19.902 12.1455 19.7917 12.3424 19.5952C12.5392 19.3988 12.6498 19.1324 12.6498 18.8546C12.6498 18.5768 12.5392 18.3103 12.3424 18.1139C12.1455 17.9174 11.8786 17.8071 11.6002 17.8071ZM21.0465 10.9828V19.902C21.0449 21.2906 20.4914 22.6217 19.5076 23.6036C18.5238 24.5854 17.1899 25.1377 15.7986 25.1394H5.30265C3.91132 25.1377 2.57745 24.5854 1.59362 23.6036C0.609798 22.6217 0.0563541 21.2906 0.0546875 19.902V5.2374C0.0563541 3.84887 0.609798 2.51769 1.59362 1.53585C2.57745 0.554014 3.91132 0.00168738 5.30265 2.41429e-05H10.0416C11.0068 -0.00245515 11.9629 0.186043 12.8547 0.554619C13.7465 0.923195 14.5562 1.46454 15.2371 2.14735L18.8938 5.79884C19.5784 6.47786 20.1212 7.28569 20.4907 8.17554C20.8602 9.06538 21.0492 10.0196 21.0465 10.9828ZM13.7529 3.62848C13.4226 3.30916 13.0517 3.03448 12.6498 2.81145V7.33234C12.6498 7.61015 12.7604 7.87658 12.9572 8.07302C13.1541 8.26946 13.421 8.37982 13.6994 8.37982H18.2294C18.0058 7.97883 17.7302 7.60903 17.4097 7.27997L13.7529 3.62848ZM18.9474 10.9828C18.9474 10.81 18.9138 10.6445 18.898 10.4748H13.6994C12.8643 10.4748 12.0634 10.1437 11.4729 9.55437C10.8824 8.96506 10.5506 8.16577 10.5506 7.33234V2.1442C10.3806 2.12849 10.2137 2.09497 10.0416 2.09497H5.30265C4.46754 2.09497 3.66664 2.42605 3.07613 3.01537C2.48562 3.60469 2.15387 4.40397 2.15387 5.2374V19.902C2.15387 20.7355 2.48562 21.5347 3.07613 22.1241C3.66664 22.7134 4.46754 23.0445 5.30265 23.0445H15.7986C16.6337 23.0445 17.4346 22.7134 18.0251 22.1241C18.6156 21.5347 18.9474 20.7355 18.9474 19.902V10.9828Z" fill="black"/>
</svg>
