<svg width="20" height="25" viewBox="0 0 20 25" fill="none" xmlns="http://www.w3.org/2000/svg">
<path d="M15 14.4752C15 14.7404 14.8946 14.9948 14.7071 15.1823C14.5196 15.3699 14.2652 15.4752 14 15.4752H5.99999C5.73478 15.4752 5.48042 15.3699 5.29289 15.1823C5.10535 14.9948 4.99999 14.7404 4.99999 14.4752C4.99999 14.21 5.10535 13.9557 5.29289 13.7681C5.48042 13.5806 5.73478 13.4752 5.99999 13.4752H14C14.2652 13.4752 14.5196 13.5806 14.7071 13.7681C14.8946 13.9557 15 14.21 15 14.4752ZM11 17.4752H5.99999C5.73478 17.4752 5.48042 17.5806 5.29289 17.7681C5.10535 17.9557 4.99999 18.21 4.99999 18.4752C4.99999 18.7404 5.10535 18.9948 5.29289 19.1823C5.48042 19.3699 5.73478 19.4752 5.99999 19.4752H11C11.2652 19.4752 11.5196 19.3699 11.7071 19.1823C11.8946 18.9948 12 18.7404 12 18.4752C12 18.21 11.8946 17.9557 11.7071 17.7681C11.5196 17.5806 11.2652 17.4752 11 17.4752ZM20 10.9602V19.4752C19.9984 20.8008 19.4711 22.0717 18.5338 23.009C17.5964 23.9463 16.3256 24.4736 15 24.4752H4.99999C3.6744 24.4736 2.40355 23.9463 1.46622 23.009C0.528881 22.0717 0.00158786 20.8008 0 19.4752V5.47524C0.00158786 4.14964 0.528881 2.8788 1.46622 1.94146C2.40355 1.00412 3.6744 0.476831 4.99999 0.475243H9.51499C10.4346 0.472876 11.3456 0.65283 12.1952 1.0047C13.0448 1.35657 13.8163 1.87338 14.465 2.52524L17.949 6.01124C18.6012 6.65948 19.1183 7.43069 19.4704 8.28021C19.8225 9.12973 20.0025 10.0407 20 10.9602V10.9602ZM13.051 3.93924C12.7363 3.6344 12.3829 3.37216 12 3.15924V7.47524C12 7.74045 12.1053 7.99481 12.2929 8.18234C12.4804 8.36988 12.7348 8.47523 13 8.47523H17.316C17.1029 8.09242 16.8403 7.73938 16.535 7.42524L13.051 3.93924ZM18 10.9602C18 10.7952 17.968 10.6372 17.953 10.4752H13C12.2043 10.4752 11.4413 10.1592 10.8787 9.59655C10.3161 9.03395 9.99999 8.27088 9.99999 7.47524V2.52224C9.83799 2.50724 9.67899 2.47524 9.51499 2.47524H4.99999C4.20435 2.47524 3.44128 2.79131 2.87868 3.35392C2.31607 3.91653 2 4.67959 2 5.47524V19.4752C2 20.2709 2.31607 21.0339 2.87868 21.5965C3.44128 22.1592 4.20435 22.4752 4.99999 22.4752H15C15.7956 22.4752 16.5587 22.1592 17.1213 21.5965C17.6839 21.0339 18 20.2709 18 19.4752V10.9602Z" fill="#FBBF24"/>
</svg>
