<svg width="26" height="25" viewBox="0 0 26 25" fill="none" xmlns="http://www.w3.org/2000/svg">
<path fill-rule="evenodd" clip-rule="evenodd" d="M12.6606 0.0055542C5.70175 0.0055542 0.0654297 5.6305 0.0654297 12.5753C0.0654297 18.1374 3.67078 22.8353 8.67735 24.5008C9.30711 24.6107 9.54326 24.2337 9.54326 23.9037C9.54326 23.6052 9.52752 22.6153 9.52752 21.5626C6.36299 22.1439 5.54431 20.7927 5.29241 20.0857C5.15071 19.7243 4.5367 18.6087 4.00141 18.3102C3.56058 18.0745 2.93082 17.4932 3.98566 17.4774C4.97753 17.4617 5.68601 18.3887 5.92216 18.7658C7.05573 20.667 8.86628 20.1328 9.5905 19.8028C9.7007 18.9858 10.0313 18.4359 10.3934 18.1216C7.59102 17.8074 4.66265 16.7233 4.66265 11.9153C4.66265 10.5484 5.15071 9.41712 5.95365 8.53724C5.8277 8.223 5.38687 6.9346 6.0796 5.20627C6.0796 5.20627 7.13445 4.87631 9.54326 6.49466C10.5509 6.21184 11.6215 6.07044 12.692 6.07044C13.7626 6.07044 14.8332 6.21184 15.8408 6.49466C18.2496 4.8606 19.3045 5.20627 19.3045 5.20627C19.9972 6.9346 19.5564 8.223 19.4304 8.53724C20.2334 9.41712 20.7214 10.5327 20.7214 11.9153C20.7214 16.739 17.7773 17.8074 14.9749 18.1216C15.4315 18.5144 15.8251 19.2686 15.8251 20.447C15.8251 22.1282 15.8093 23.4795 15.8093 23.9037C15.8093 24.2337 16.0455 24.6265 16.6753 24.5008C19.1756 23.6584 21.3483 22.0547 22.8875 19.9154C24.4268 17.7761 25.255 15.2089 25.2557 12.5753C25.2557 5.6305 19.6194 0.0055542 12.6606 0.0055542Z" fill="black"/>
</svg>
