<svg width="24" height="25" viewBox="0 0 24 25" fill="none" xmlns="http://www.w3.org/2000/svg">
<path fill-rule="evenodd" clip-rule="evenodd" d="M12 0.480774C5.37 0.480774 0 5.9866 0 12.7843C0 18.2286 3.435 22.8271 8.205 24.4573C8.805 24.5649 9.03 24.1958 9.03 23.8729C9.03 23.5806 9.015 22.6117 9.015 21.5813C6 22.1504 5.22 20.8277 4.98 20.1357C4.845 19.7819 4.26 18.69 3.75 18.3978C3.33 18.1671 2.73 17.5981 3.735 17.5827C4.68 17.5673 5.355 18.4747 5.58 18.8438C6.66 20.7047 8.385 20.1818 9.075 19.8588C9.18 19.0591 9.495 18.5208 9.84 18.2132C7.17 17.9056 4.38 16.8445 4.38 12.1384C4.38 10.8004 4.845 9.69304 5.61 8.83179C5.49 8.5242 5.07 7.26309 5.73 5.57136C5.73 5.57136 6.735 5.24839 9.03 6.83247C9.99 6.55564 11.01 6.41723 12.03 6.41723C13.05 6.41723 14.07 6.55564 15.03 6.83247C17.325 5.23301 18.33 5.57136 18.33 5.57136C18.99 7.26309 18.57 8.5242 18.45 8.83179C19.215 9.69304 19.68 10.785 19.68 12.1384C19.68 16.8598 16.875 17.9056 14.205 18.2132C14.64 18.5977 15.015 19.3359 15.015 20.4894C15.015 22.135 15 23.4576 15 23.8729C15 24.1958 15.225 24.5803 15.825 24.4573C18.2072 23.6327 20.2773 22.063 21.7438 19.969C23.2103 17.875 23.9994 15.3622 24 12.7843C24 5.9866 18.63 0.480774 12 0.480774Z" fill="#FBBF24"/>
</svg>
