<svg width="24" height="25" viewBox="0 0 24 25" fill="none" xmlns="http://www.w3.org/2000/svg">
<path fill-rule="evenodd" clip-rule="evenodd" d="M12 0.47522C8.7408 0.47522 8.3328 0.48882 7.0528 0.54722C5.7752 0.60562 4.9024 0.80882 4.1392 1.10562C3.3392 1.40642 2.6136 1.87842 2.0136 2.48962C1.40338 3.08893 0.931087 3.81402 0.6296 4.61442C0.3344 5.37762 0.1304 6.25122 0.072 7.52882C0.0144 8.80802 0 9.21522 0 12.4752C0 15.7352 0.0136 16.1424 0.072 17.4224C0.1304 18.7 0.3336 19.5728 0.6304 20.336C0.9312 21.136 1.4032 21.8616 2.0144 22.4616C2.61372 23.0718 3.33881 23.5441 4.1392 23.8456C4.9024 24.1416 5.7752 24.3448 7.0528 24.4032C8.3328 24.4616 8.7408 24.4752 12 24.4752C15.2592 24.4752 15.6672 24.4616 16.9472 24.4032C18.2248 24.3448 19.0976 24.1416 19.8608 23.8448C20.6608 23.544 21.3864 23.072 21.9864 22.4608C22.5966 21.8615 23.0689 21.1364 23.3704 20.336C23.6664 19.5728 23.8696 18.7 23.928 17.4224C23.9864 16.1424 24 15.7344 24 12.4752C24 9.21602 23.9864 8.80802 23.928 7.52802C23.8696 6.25042 23.6664 5.37762 23.3696 4.61442C23.0683 3.81367 22.596 3.08828 21.9856 2.48882C21.3863 1.8786 20.6612 1.40631 19.8608 1.10482C19.0976 0.80962 18.224 0.60562 16.9464 0.54722C15.6672 0.48962 15.26 0.47522 12 0.47522ZM12 2.63762C15.204 2.63762 15.584 2.64962 16.8496 2.70722C18.0192 2.76082 18.6544 2.95522 19.0776 3.12082C19.6376 3.33762 20.0376 3.59842 20.4576 4.01762C20.8776 4.43762 21.1376 4.83762 21.3544 5.39762C21.5192 5.82082 21.7144 6.45602 21.768 7.62562C21.8256 8.89122 21.8376 9.27122 21.8376 12.4752C21.8376 15.6792 21.8256 16.0592 21.768 17.3248C21.7144 18.4944 21.52 19.1296 21.3544 19.5528C21.1623 20.0741 20.8559 20.5456 20.4576 20.9328C20.0705 21.3312 19.5989 21.6377 19.0776 21.8296C18.6544 21.9944 18.0192 22.1896 16.8496 22.2432C15.584 22.3008 15.2048 22.3128 12 22.3128C8.7952 22.3128 8.416 22.3008 7.1504 22.2432C5.9808 22.1896 5.3456 21.9952 4.9224 21.8296C4.40116 21.6376 3.92961 21.3311 3.5424 20.9328C3.14414 20.5456 2.8377 20.074 2.6456 19.5528C2.4808 19.1296 2.2856 18.4944 2.232 17.3248C2.1744 16.0592 2.1624 15.6792 2.1624 12.4752C2.1624 9.27122 2.1744 8.89122 2.232 7.62562C2.2856 6.45602 2.48 5.82082 2.6456 5.39762C2.8624 4.83762 3.1232 4.43762 3.5424 4.01762C3.92955 3.61926 4.40113 3.3128 4.9224 3.12082C5.3456 2.95602 5.9808 2.76082 7.1504 2.70722C8.416 2.64962 8.796 2.63762 12 2.63762Z" fill="#FBBF24"/>
<path fill-rule="evenodd" clip-rule="evenodd" d="M12 16.4792C11.4742 16.4792 10.9535 16.3757 10.4678 16.1744C9.98197 15.9732 9.54057 15.6783 9.16876 15.3065C8.79696 14.9347 8.50203 14.4933 8.30081 14.0075C8.09959 13.5217 7.99602 13.001 7.99602 12.4752C7.99602 11.9494 8.09959 11.4287 8.30081 10.943C8.50203 10.4572 8.79696 10.0158 9.16876 9.64396C9.54057 9.27216 9.98197 8.97723 10.4678 8.77601C10.9535 8.57479 11.4742 8.47122 12 8.47122C13.0619 8.47122 14.0804 8.89307 14.8313 9.64396C15.5822 10.3949 16.004 11.4133 16.004 12.4752C16.004 13.5371 15.5822 14.5556 14.8313 15.3065C14.0804 16.0574 13.0619 16.4792 12 16.4792ZM12 6.30722C10.3642 6.30722 8.79531 6.95706 7.63858 8.11379C6.48186 9.27051 5.83202 10.8394 5.83202 12.4752C5.83202 14.1111 6.48186 15.6799 7.63858 16.8367C8.79531 17.9934 10.3642 18.6432 12 18.6432C13.6359 18.6432 15.2047 17.9934 16.3615 16.8367C17.5182 15.6799 18.168 14.1111 18.168 12.4752C18.168 10.8394 17.5182 9.27051 16.3615 8.11379C15.2047 6.95706 13.6359 6.30722 12 6.30722ZM19.9624 6.19522C19.9624 6.58191 19.8088 6.95275 19.5354 7.22618C19.262 7.49961 18.8911 7.65322 18.5044 7.65322C18.1177 7.65322 17.7469 7.49961 17.4735 7.22618C17.2 6.95275 17.0464 6.58191 17.0464 6.19522C17.0464 5.80853 17.2 5.43769 17.4735 5.16426C17.7469 4.89083 18.1177 4.73722 18.5044 4.73722C18.8911 4.73722 19.262 4.89083 19.5354 5.16426C19.8088 5.43769 19.9624 5.80853 19.9624 6.19522Z" fill="#FBBF24"/>
</svg>
