<svg width="26" height="26" viewBox="0 0 26 26" fill="none" xmlns="http://www.w3.org/2000/svg">
<path fill-rule="evenodd" clip-rule="evenodd" d="M12.9892 0C9.56833 0 9.1401 0.0142457 7.79662 0.0754182C6.45566 0.136591 5.53957 0.349438 4.73852 0.660329C3.89885 0.975409 3.13726 1.46982 2.50751 2.11003C1.86702 2.73779 1.37131 3.49731 1.05487 4.33571C0.745027 5.13514 0.53091 6.05022 0.469614 7.38847C0.409157 8.7284 0.394043 9.15493 0.394043 12.5697C0.394043 15.9845 0.408317 16.411 0.469614 17.7518C0.53091 19.09 0.744188 20.0043 1.05571 20.8037C1.37143 21.6417 1.86683 22.4017 2.50835 23.0302C3.13739 23.6694 3.89844 24.1641 4.73852 24.4799C5.53957 24.79 6.45566 25.0028 7.79662 25.064C9.1401 25.1252 9.56833 25.1394 12.9892 25.1394C16.41 25.1394 16.8382 25.1252 18.1817 25.064C19.5227 25.0028 20.4388 24.79 21.2398 24.4791C22.0795 24.164 22.8411 23.6696 23.4708 23.0294C24.1113 22.4016 24.607 21.6421 24.9235 20.8037C25.2342 20.0043 25.4474 19.09 25.5087 17.7518C25.57 16.411 25.5843 15.9836 25.5843 12.5697C25.5843 9.15577 25.57 8.7284 25.5087 7.38764C25.4474 6.04938 25.2342 5.13514 24.9226 4.33571C24.6064 3.49695 24.1107 2.73711 23.47 2.1092C22.841 1.47 22.0799 0.97529 21.2398 0.659491C20.4388 0.350276 19.5218 0.136591 18.1809 0.0754182C16.8382 0.0150836 16.4108 0 12.9892 0ZM12.9892 2.26506C16.3521 2.26506 16.7509 2.27763 18.0793 2.33797C19.3069 2.39411 19.9736 2.59774 20.4178 2.7712C21.0056 2.99829 21.4254 3.27148 21.8662 3.71058C22.307 4.15052 22.5799 4.56951 22.8075 5.15609C22.9805 5.59938 23.1853 6.26474 23.2416 7.48987C23.3021 8.81555 23.3147 9.21359 23.3147 12.5697C23.3147 15.9258 23.3021 16.3239 23.2416 17.6495C23.1853 18.8747 22.9813 19.54 22.8075 19.9833C22.6059 20.5293 22.2843 21.0232 21.8662 21.4288C21.4599 21.8461 20.9649 22.1671 20.4178 22.3682C19.9736 22.5408 19.3069 22.7453 18.0793 22.8014C16.7509 22.8618 16.3529 22.8744 12.9892 22.8744C9.62543 22.8744 9.22743 22.8618 7.89906 22.8014C6.67146 22.7453 6.00475 22.5417 5.56056 22.3682C5.01348 22.167 4.51853 21.846 4.11213 21.4288C3.69412 21.0232 3.37248 20.5293 3.17085 19.9833C2.99788 19.54 2.793 18.8747 2.73674 17.6495C2.67628 16.3239 2.66369 15.9258 2.66369 12.5697C2.66369 9.21359 2.67628 8.81555 2.73674 7.48987C2.793 6.26474 2.99704 5.59938 3.17085 5.15609C3.3984 4.56951 3.67214 4.15052 4.11213 3.71058C4.51848 3.2933 5.01344 2.9723 5.56056 2.7712C6.00475 2.59858 6.67146 2.39411 7.89906 2.33797C9.22743 2.27763 9.62627 2.26506 12.9892 2.26506Z" fill="black"/>
<path fill-rule="evenodd" clip-rule="evenodd" d="M12.9892 16.7638C12.4373 16.7638 11.8908 16.6553 11.3809 16.4445C10.8711 16.2338 10.4078 15.9248 10.0175 15.5354C9.62728 15.1459 9.31772 14.6836 9.10652 14.1747C8.89532 13.6659 8.78662 13.1205 8.78662 12.5697C8.78662 12.0189 8.89532 11.4735 9.10652 10.9647C9.31772 10.4558 9.62728 9.99349 10.0175 9.60403C10.4078 9.21458 10.8711 8.90564 11.3809 8.69487C11.8908 8.4841 12.4373 8.37561 12.9892 8.37561C14.1038 8.37561 15.1727 8.81749 15.9609 9.60403C16.749 10.3906 17.1918 11.4574 17.1918 12.5697C17.1918 13.682 16.749 14.7488 15.9609 15.5354C15.1727 16.3219 14.1038 16.7638 12.9892 16.7638ZM12.9892 6.10888C11.2722 6.10888 9.62555 6.78957 8.41146 8.00121C7.19736 9.21285 6.5153 10.8562 6.5153 12.5697C6.5153 14.2832 7.19736 15.9266 8.41146 17.1382C9.62555 18.3498 11.2722 19.0305 12.9892 19.0305C14.7062 19.0305 16.3528 18.3498 17.5669 17.1382C18.781 15.9266 19.4631 14.2832 19.4631 12.5697C19.4631 10.8562 18.781 9.21285 17.5669 8.00121C16.3528 6.78957 14.7062 6.10888 12.9892 6.10888ZM21.3465 5.99156C21.3465 6.3966 21.1853 6.78506 20.8983 7.07147C20.6113 7.35788 20.222 7.51878 19.8162 7.51878C19.4103 7.51878 19.0211 7.35788 18.7341 7.07147C18.4471 6.78506 18.2859 6.3966 18.2859 5.99156C18.2859 5.58652 18.4471 5.19806 18.7341 4.91165C19.0211 4.62524 19.4103 4.46434 19.8162 4.46434C20.222 4.46434 20.6113 4.62524 20.8983 4.91165C21.1853 5.19806 21.3465 5.58652 21.3465 5.99156Z" fill="black"/>
</svg>
