<svg width="26" height="26" viewBox="0 0 26 26" fill="none" xmlns="http://www.w3.org/2000/svg">
<path d="M25.1903 1.84849V23.2909C25.1903 23.7812 24.9951 24.2513 24.6478 24.598C24.3004 24.9447 23.8293 25.1394 23.338 25.1394H1.85222C1.36098 25.1394 0.889864 24.9447 0.542504 24.598C0.195145 24.2513 0 23.7812 0 23.2909L0 1.84849C0 1.35824 0.195145 0.888067 0.542504 0.541409C0.889864 0.194751 1.36098 0 1.85222 0L23.338 0C23.8293 0 24.3004 0.194751 24.6478 0.541409C24.9951 0.888067 25.1903 1.35824 25.1903 1.84849ZM7.4089 9.61213H3.70445V21.4424H7.4089V9.61213ZM7.7423 5.54546C7.74425 5.26581 7.69099 4.98852 7.58556 4.72942C7.48013 4.47031 7.32459 4.23447 7.12783 4.03536C6.93106 3.83625 6.69693 3.67776 6.43879 3.56896C6.18065 3.46015 5.90357 3.40315 5.62335 3.40121H5.55667C4.98684 3.40121 4.44034 3.62713 4.0374 4.02925C3.63446 4.43137 3.40809 4.97677 3.40809 5.54546C3.40809 6.11415 3.63446 6.65954 4.0374 7.06167C4.44034 7.46379 4.98684 7.6897 5.55667 7.6897C5.83691 7.69658 6.11575 7.64829 6.37727 7.54758C6.63879 7.44688 6.87787 7.29573 7.08084 7.10279C7.28381 6.90984 7.4467 6.67887 7.5602 6.42307C7.67369 6.16728 7.73557 5.89167 7.7423 5.612V5.54546ZM21.4858 14.2555C21.4858 10.699 19.2187 9.31637 16.9664 9.31637C16.2289 9.27952 15.4947 9.43627 14.8369 9.771C14.1791 10.1057 13.6207 10.6067 13.2175 11.224H13.1138V9.61213H9.63157V21.4424H13.336V15.1502C13.2825 14.5058 13.4859 13.8663 13.902 13.3706C14.3182 12.875 14.9135 12.5633 15.5587 12.5032H15.6995C16.8775 12.5032 17.7517 13.2426 17.7517 15.1058V21.4424H21.4562L21.4858 14.2555Z" fill="black"/>
</svg>
