<svg width="24" height="25" viewBox="0 0 24 25" fill="none" xmlns="http://www.w3.org/2000/svg">
<path d="M24 2.23993V22.7105C24 23.1785 23.8141 23.6274 23.4831 23.9584C23.1522 24.2893 22.7033 24.4752 22.2353 24.4752H1.76471C1.29668 24.4752 0.847817 24.2893 0.51687 23.9584C0.185924 23.6274 0 23.1785 0 22.7105L0 2.23993C0 1.7719 0.185924 1.32304 0.51687 0.99209C0.847817 0.661144 1.29668 0.47522 1.76471 0.47522L22.2353 0.47522C22.7033 0.47522 23.1522 0.661144 23.4831 0.99209C23.8141 1.32304 24 1.7719 24 2.23993ZM7.05882 9.65169H3.52941V20.9458H7.05882V9.65169ZM7.37647 5.76934C7.37833 5.50237 7.32759 5.23764 7.22714 4.99028C7.12669 4.74292 6.9785 4.51777 6.79103 4.32768C6.60357 4.13759 6.38049 3.98629 6.13455 3.88242C5.88861 3.77854 5.62462 3.72413 5.35765 3.72228H5.29412C4.7512 3.72228 4.23053 3.93795 3.84663 4.32185C3.46273 4.70575 3.24706 5.22642 3.24706 5.76934C3.24706 6.31225 3.46273 6.83293 3.84663 7.21683C4.23053 7.60072 4.7512 7.8164 5.29412 7.8164C5.56111 7.82296 5.82677 7.77686 6.07594 7.68072C6.32511 7.58458 6.55289 7.44028 6.74627 7.25608C6.93965 7.07188 7.09484 6.85138 7.20297 6.60718C7.3111 6.36297 7.37006 6.09986 7.37647 5.83287V5.76934ZM20.4706 14.0846C20.4706 10.6893 18.3106 9.36934 16.1647 9.36934C15.4621 9.33416 14.7625 9.4838 14.1358 9.80336C13.5091 10.1229 12.9771 10.6012 12.5929 11.1905H12.4941V9.65169H9.17647V20.9458H12.7059V14.9387C12.6549 14.3235 12.8487 13.713 13.2452 13.2399C13.6417 12.7667 14.2089 12.4691 14.8235 12.4117H14.9576C16.08 12.4117 16.9129 13.1176 16.9129 14.8964V20.9458H20.4424L20.4706 14.0846Z" fill="#FBBF24"/>
</svg>
