<svg width="21" height="24" viewBox="0 0 21 24" fill="none" xmlns="http://www.w3.org/2000/svg">
<path d="M10.9089 24.0078L10.2152 23.4103C9.25891 22.6056 0.90889 15.3589 0.90889 10.058C0.90889 4.50814 5.38605 0.0090332 10.9089 0.0090332C16.4317 0.0090332 20.9089 4.50814 20.9089 10.058C20.9089 15.3589 12.5589 22.6056 11.6065 23.4142L10.9089 24.0078ZM10.9089 2.18192C6.5823 2.18685 3.07613 5.71021 3.07123 10.058C3.07123 13.3881 8.20849 18.7078 10.9089 21.1427C13.6093 18.7069 18.7466 13.3841 18.7466 10.058C18.7417 5.71021 15.2355 2.18689 10.9089 2.18192Z" fill="#FBBF24"/>
<path d="M10.909 14.041C8.71979 14.041 6.94508 12.2576 6.94508 10.0577C6.94508 7.85775 8.71979 6.07434 10.909 6.07434C13.0982 6.07434 14.8729 7.85775 14.8729 10.0577C14.8729 12.2576 13.0983 14.041 10.909 14.041ZM10.909 8.06597C9.81439 8.06597 8.92704 8.95767 8.92704 10.0576C8.92704 11.1576 9.81439 12.0493 10.909 12.0493C12.0036 12.0493 12.891 11.1576 12.891 10.0576C12.891 8.95767 12.0036 8.06597 10.909 8.06597Z" fill="#FBBF24"/>
</svg>
