<svg width="22" height="25" viewBox="0 0 22 25" fill="none" xmlns="http://www.w3.org/2000/svg">
<path d="M10.6359 0C7.81603 0.00292961 5.11254 1.06396 3.1186 2.95029C1.12465 4.83663 0.00309674 7.3942 0 10.0619C0 15.3766 8.93415 22.6724 9.94881 23.4874L10.6359 24.0368L11.323 23.4874C12.3376 22.6724 21.2718 15.3766 21.2718 10.0619C21.2687 7.3942 20.1471 4.83663 18.1532 2.95029C16.1592 1.06396 13.4557 0.00292961 10.6359 0V0ZM10.6359 15.0928C9.5841 15.0928 8.55593 14.7978 7.6814 14.245C6.80686 13.6921 6.12525 12.9064 5.72275 11.9871C5.32025 11.0679 5.21493 10.0563 5.42013 9.08039C5.62532 8.10449 6.13181 7.20806 6.87553 6.50447C7.61926 5.80088 8.56683 5.32173 9.59841 5.12761C10.63 4.93349 11.6992 5.03312 12.671 5.4139C13.6427 5.79468 14.4733 6.43951 15.0576 7.26684C15.6419 8.09417 15.9538 9.06685 15.9538 10.0619C15.9521 11.3957 15.3913 12.6744 14.3944 13.6175C13.3974 14.5607 12.0458 15.0912 10.6359 15.0928Z" fill="black"/>
</svg>
