<svg width="1440" height="1081" viewBox="0 0 1440 1081" fill="none" xmlns="http://www.w3.org/2000/svg">
<g clip-path="url(#clip0_114_37)">
<mask id="mask0_114_37" style="mask-type:luminance" maskUnits="userSpaceOnUse" x="0" y="0" width="1440" height="1081">
<path d="M1440 0H0V1081H1440V0Z" fill="white"/>
</mask>
<g mask="url(#mask0_114_37)">
<mask id="mask1_114_37" style="mask-type:alpha" maskUnits="userSpaceOnUse" x="0" y="0" width="1440" height="977">
<mask id="mask2_114_37" style="mask-type:luminance" maskUnits="userSpaceOnUse" x="0" y="0" width="1440" height="1440">
<path d="M0 0V1440H1440V0H0Z" fill="white"/>
</mask>
<g mask="url(#mask2_114_37)">
<path d="M0 -463V977H1440V-463H0Z" fill="url(#paint0_radial_114_37)"/>
</g>
</mask>
<g mask="url(#mask1_114_37)">
<mask id="mask3_114_37" style="mask-type:luminance" maskUnits="userSpaceOnUse" x="-240" y="0" width="1920" height="1440">
<path d="M1680 0H-240V1440H1680V0Z" fill="white"/>
</mask>
<g mask="url(#mask3_114_37)">
<path d="M99 0V1440" stroke="#424355"/>
<path d="M306 0V1440" stroke="#424355"/>
<path d="M513 0V1440" stroke="#424355"/>
<path d="M720 0V1440" stroke="#424355"/>
<path d="M927 0V1440" stroke="#424355"/>
<path d="M1134 0V1440" stroke="#424355"/>
<path d="M1341 0V1440" stroke="#424355"/>
<path d="M-240 99H1680" stroke="#424355"/>
<path d="M-240 306H1680" stroke="#424355"/>
<path d="M-240 513H1680" stroke="#424355"/>
<path d="M-240 720H1680" stroke="#424355"/>
<path d="M-240 927H1680" stroke="#424355"/>
</g>
</g>
<g filter="url(#filter0_f_114_37)">
<circle cx="153" cy="197" r="315" fill="url(#paint1_linear_114_37)" fill-opacity="0.22"/>
</g>
</g>
</g>
<defs>
<filter id="filter0_f_114_37" x="-562" y="-518" width="1430" height="1430" filterUnits="userSpaceOnUse" color-interpolation-filters="sRGB">
<feFlood flood-opacity="0" result="BackgroundImageFix"/>
<feBlend mode="normal" in="SourceGraphic" in2="BackgroundImageFix" result="shape"/>
<feGaussianBlur stdDeviation="200" result="effect1_foregroundBlur_114_37"/>
</filter>
<radialGradient id="paint0_radial_114_37" cx="0" cy="0" r="1" gradientUnits="userSpaceOnUse" gradientTransform="translate(720 257) scale(720)">
<stop/>
<stop offset="1" stop-opacity="0"/>
</radialGradient>
<linearGradient id="paint1_linear_114_37" x1="153" y1="-118" x2="153" y2="512" gradientUnits="userSpaceOnUse">
<stop stop-color="#35B3FF"/>
<stop offset="0.495192" stop-color="#812FFF"/>
<stop offset="1" stop-color="#E737FF"/>
</linearGradient>
<clipPath id="clip0_114_37">
<rect width="1440" height="1081" fill="white"/>
</clipPath>
</defs>
</svg>
