<svg width="1440" height="1081" viewBox="0 0 1440 1081" fill="none" xmlns="http://www.w3.org/2000/svg">
<g clip-path="url(#clip0_324_1504)">
<mask id="mask0_324_1504" style="mask-type:alpha" maskUnits="userSpaceOnUse" x="0" y="0" width="1440" height="1440">
<g clip-path="url(#clip1_324_1504)">
<rect width="1440" height="1440" transform="matrix(0 -1 1 0 0 977)" fill="url(#paint0_radial_324_1504)"/>
</g>
</mask>
<g mask="url(#mask0_324_1504)">
<g clip-path="url(#clip2_324_1504)">
<path d="M99 0V1440" stroke="#424355"/>
<path d="M306 0V1440" stroke="#424355"/>
<path d="M513 0V1440" stroke="#424355"/>
<path d="M720 0V1440" stroke="#424355"/>
<path d="M927 0V1440" stroke="#424355"/>
<path d="M1134 0V1440" stroke="#424355"/>
<path d="M1341 0V1440" stroke="#424355"/>
<path d="M-240 99L1680 99" stroke="#424355"/>
<path d="M-240 306L1680 306" stroke="#424355"/>
<path d="M-240 513L1680 513" stroke="#424355"/>
<path d="M-240 720L1680 720" stroke="#424355"/>
<path d="M-240 927L1680 927" stroke="#424355"/>
</g>
</g>
</g>
<defs>
<radialGradient id="paint0_radial_324_1504" cx="0" cy="0" r="1" gradientUnits="userSpaceOnUse" gradientTransform="translate(720 720) rotate(90) scale(720 720)">
<stop/>
<stop offset="1" stop-opacity="0"/>
</radialGradient>
<clipPath id="clip0_324_1504">
<rect width="1440" height="1081" fill="white"/>
</clipPath>
<clipPath id="clip1_324_1504">
<rect width="1440" height="1440" fill="white" transform="matrix(0 -1 1 0 0 1440)"/>
</clipPath>
<clipPath id="clip2_324_1504">
<rect width="1920" height="1440" fill="white" transform="translate(-240)"/>
</clipPath>
</defs>
</svg>
