<svg width="60" height="60" viewBox="0 0 60 60" fill="none" xmlns="http://www.w3.org/2000/svg">
<path fill-rule="evenodd" clip-rule="evenodd" d="M0.769907 15.3969C0.720549 15.9246 0.695312 16.4594 0.695312 17V15.3969H0.769907ZM0.695312 20.4422H13.3747C14.2854 22.6593 16.4537 24.2407 18.9838 24.2407C19.8082 24.2407 20.5943 24.0728 21.311 23.7696L36.7315 39.337C36.4332 40.0594 36.2686 40.8495 36.2686 41.6746C36.2686 45.0257 38.9851 47.8 42.3362 47.8C45.6873 47.8 48.4038 45.0257 48.4038 41.6746C48.4038 38.3235 45.6873 35.5492 42.3362 35.5492C41.6497 35.5492 40.9899 35.6656 40.3746 35.8796L25.0828 20.4422H36.7565C37.6671 22.6593 39.8355 24.2407 42.3655 24.2407C45.7166 24.2407 48.4331 21.4664 48.4331 18.1153C48.4331 14.7642 45.7166 11.9899 42.3655 11.9899C39.987 11.9899 37.9282 13.3875 36.9335 15.3969H24.4158C23.421 13.3875 21.3622 11.9899 18.9838 11.9899C16.6053 11.9899 14.5465 13.3875 13.5517 15.3969H0.769907C1.57774 6.75987 8.8471 0 17.6953 0H30.2509H42.8064C52.1952 0 59.8064 7.61115 59.8064 17V29.721V42.4419C59.8064 51.8308 52.1952 59.4419 42.8064 59.4419H30.2509H17.6953C8.30647 59.4419 0.695312 51.8308 0.695312 42.4419V29.721V20.4422Z" fill="#F25234"/>
</svg>
