<svg width="60" height="59" viewBox="0 0 60 59" fill="none" xmlns="http://www.w3.org/2000/svg">
<path d="M13.8146 50.4751C15.3277 51.6246 17.7894 52.4896 21.6667 51.7718V56.7151C21.6667 57.0208 21.5722 57.2999 21.3951 57.4718C21.2403 57.622 20.9402 57.7696 20.3385 57.6643C8.81036 53.7753 0.5 42.7885 0.5 29.837C0.5 13.6312 13.5165 0.5 29.5555 0.5C45.597 0.5 58.6111 13.6312 58.6111 29.837C58.6111 42.7844 50.3094 53.7692 38.79 57.6625C38.1729 57.7764 37.8699 57.6281 37.7159 57.4792C37.5391 57.3083 37.4444 57.0273 37.4444 56.7151V48.5273C37.4444 46.2196 36.8047 44.5043 35.9444 43.377C38.9639 42.9523 42.0477 42.0784 44.4553 40.0439C47.1457 37.7704 48.912 34.1182 48.912 28.2805C48.912 25.0132 47.7996 22.308 45.9443 20.1655C46.3423 19.0262 47.0576 16.0575 45.5452 12.1927L45.4589 11.972L45.2333 11.8991L45.0796 12.3749C45.2333 11.8991 45.2328 11.8989 45.2323 11.8988L45.2313 11.8984L45.229 11.8977L45.2238 11.8961L45.2104 11.8922C45.2003 11.8893 45.1877 11.8858 45.1726 11.882C45.1424 11.8744 45.1021 11.8653 45.0518 11.8561C44.9509 11.8377 44.8098 11.819 44.6273 11.8106C44.2619 11.7938 43.7331 11.8184 43.0312 11.9679C41.66 12.26 39.6324 13.0278 36.8693 14.8899C34.5258 14.2567 32.0321 13.9409 29.558 13.9286L29.5531 13.9287C27.0792 13.9409 24.5879 14.2567 22.2489 14.8898C19.4833 13.0277 17.4533 12.2599 16.0803 11.9679C15.3776 11.8184 14.8481 11.7938 14.4822 11.8106C14.2994 11.819 14.1582 11.8377 14.0573 11.8561C14.0068 11.8653 13.9666 11.8743 13.9363 11.8819C13.9212 11.8857 13.9086 11.8892 13.8984 11.8921L13.8851 11.896L13.8799 11.8976L13.8776 11.8984L13.8766 11.8987C13.8761 11.8989 13.8756 11.899 14.029 12.3749L13.8756 11.899L13.6497 11.9718L13.5634 12.1928C12.0526 16.057 12.7694 19.0263 13.1672 20.1659C11.3189 22.3072 10.1966 25.0096 10.1966 28.2805C10.1966 34.1035 11.9599 37.7562 14.644 40.0368C17.0482 42.0798 20.1282 42.9657 23.143 43.3998C22.5425 44.1976 22.0603 45.2881 21.8319 46.6672C21.0021 47.0125 19.7293 47.3956 18.385 47.2744C16.9354 47.1437 15.3541 46.4244 14.1194 44.2904L14.1158 44.2839L14.0989 44.2542C14.0845 44.2294 14.0639 44.1945 14.0371 44.151C13.9836 44.064 13.9051 43.9421 13.8018 43.7963C13.5958 43.5056 13.2886 43.1163 12.8816 42.7192C12.0714 41.9287 10.8337 41.0779 9.18993 40.9622L9.17584 40.9612L9.16172 40.961L9.15483 41.4609C9.16172 40.961 9.16156 40.961 9.16138 40.961L9.16097 40.961L9.15995 40.961L9.15713 40.9609L9.14837 40.9609L9.11914 40.961C9.09472 40.9612 9.06059 40.9617 9.01888 40.9631C8.93591 40.966 8.82068 40.9724 8.69092 40.9867C8.45132 41.0131 8.08614 41.0736 7.79805 41.2389C7.6484 41.3247 7.47405 41.4646 7.3776 41.6872C7.27469 41.9248 7.29528 42.1747 7.389 42.4005C7.55619 42.8034 7.99107 43.2186 8.66627 43.6849L8.69973 43.7081L8.73334 43.7239L8.73366 43.7241L8.7337 43.7241L8.73398 43.7243L8.73475 43.7246L8.73553 43.725L8.74162 43.7282C8.75041 43.7328 8.76609 43.7411 8.78804 43.7537C8.83195 43.7788 8.90097 43.8207 8.9903 43.8823C9.16888 44.0055 9.42894 44.2081 9.73204 44.5148C10.3357 45.1257 11.1169 46.1564 11.7636 47.8108L11.7665 47.8193C11.7713 47.8332 11.7781 47.8521 11.7869 47.8755C11.8046 47.9222 11.8305 47.9872 11.8659 48.0673C11.9367 48.2273 12.0458 48.4483 12.2032 48.7051C12.518 49.2182 13.0283 49.8777 13.8146 50.4751Z" fill="white" stroke="black"/>
</svg>
