<svg width="60" height="59" viewBox="0 0 60 59" fill="none" xmlns="http://www.w3.org/2000/svg">
<path d="M30.4159 0C14.0963 0 0.860352 13.3595 0.860352 29.837C0.860352 43.0199 9.32802 54.2038 21.0739 58.1497C22.5492 58.4257 23.027 57.5008 23.027 56.7151V51.1604C14.8056 52.9656 13.0939 47.6397 13.0939 47.6397C11.7491 44.191 9.81076 43.2735 9.81076 43.2735C7.12859 41.4212 10.0152 41.4609 10.0152 41.4609C12.9831 41.6698 14.5446 44.5366 14.5446 44.5366C17.1799 49.0967 21.4581 47.7789 23.1452 47.0156C23.4088 45.0886 24.1748 43.7708 25.022 43.0274C18.4582 42.269 11.557 39.7105 11.557 28.2805C11.557 25.0208 12.7121 22.3603 14.6012 20.2717C14.2958 19.5183 13.2835 16.4824 14.8894 12.3749C14.8894 12.3749 17.3721 11.5743 23.0196 15.4332C25.3767 14.7718 27.9037 14.4411 30.4159 14.4287C32.9281 14.4411 35.4576 14.7718 37.8196 15.4332C43.4622 11.5743 45.9399 12.3749 45.9399 12.3749C47.5483 16.4849 46.536 19.5208 46.2306 20.2717C48.1271 22.3603 49.2723 25.0233 49.2723 28.2805C49.2723 39.7403 42.3588 42.264 35.7778 43.0025C36.8368 43.9275 37.8048 45.7425 37.8048 48.5273V56.7151C37.8048 57.5082 38.2777 58.4407 39.7776 58.1473C51.5136 54.1963 59.9714 43.0149 59.9714 29.837C59.9714 13.3595 46.7379 0 30.4159 0Z" fill="white"/>
</svg>
