<svg width="30" height="31" viewBox="0 0 30 31" fill="none" xmlns="http://www.w3.org/2000/svg">
<path fill-rule="evenodd" clip-rule="evenodd" d="M0 0H30V30.2856H0V0ZM16.2787 13.8809H13.5581V23.9464C13.5581 24.2433 13.3081 25.4607 12.0434 25.4013C10.7787 25.3419 10.2052 23.9167 10.2052 23.9167L7.9552 25.3122C7.9552 25.3122 9.2052 27.8954 11.7199 27.8954C14.2346 27.8954 16.2787 26.9453 16.2787 23.9464V13.8809ZM26.8077 15.989C25.8622 14.3289 24.3227 13.6396 22.7195 13.7325C21.1162 13.8254 18.7782 14.4325 18.7195 17.6369C18.6607 20.8414 22.5283 21.9571 22.5283 21.9571C24.1405 22.6417 24.8984 23.047 24.8518 23.9761C24.6775 25.1174 23.9253 25.4162 22.9548 25.4162C21.9842 25.4162 21.02 24.9764 20.1312 23.694L17.8959 25.0005C19.0916 26.9102 20.4989 27.9251 22.9548 27.9103C25.4106 27.8954 27.7489 26.6187 27.6753 23.9761C27.6018 21.3336 26.337 20.6374 23.7783 19.4333C22.0918 18.7653 21.5871 18.4683 21.4989 17.6369C21.4106 16.8056 21.9842 16.182 22.8077 16.182C23.6312 16.182 24.2267 16.6276 24.6459 17.4142L26.8077 15.989Z" fill="#FFDF00"/>
</svg>
