<svg width="60" height="60" viewBox="0 0 60 60" fill="none" xmlns="http://www.w3.org/2000/svg">
<path fill-rule="evenodd" clip-rule="evenodd" d="M0.534058 0H59.6452V59.6739H0.534058V0ZM32.6093 27.3505H27.2487V47.1833C27.2487 47.7684 26.7561 50.167 24.2642 50.05C21.7723 49.933 20.6422 47.1248 20.6422 47.1248L16.2089 49.8745C16.2089 49.8745 18.6718 54.9643 23.6267 54.9643C28.5816 54.9643 32.6093 53.0922 32.6093 47.1833V27.3505ZM53.3552 31.5043C51.4923 28.2333 48.4589 26.875 45.2999 27.058C42.1409 27.2411 37.5343 28.4373 37.4184 34.7513C37.3026 41.0653 44.9232 43.2636 44.9232 43.2636C48.0999 44.6124 49.5932 45.4111 49.5014 47.2418C49.1579 49.4905 47.6759 50.0793 45.7635 50.0793C43.8511 50.0793 41.9512 49.2127 40.2001 46.6861L35.7958 49.2602C38.1517 53.023 40.9245 55.0229 45.7635 54.9936C50.6025 54.9644 55.2097 52.4487 55.0648 47.2418C54.9199 42.035 52.4277 40.6634 47.3862 38.2908C44.0631 36.9747 43.0687 36.3894 42.8949 34.7513C42.721 33.1132 43.8511 31.8846 45.4738 31.8846C47.0964 31.8846 48.2698 32.7626 49.0958 34.3125L53.3552 31.5043Z" fill="#FFDF00"/>
</svg>
